<mxfile host="app.diagrams.net" modified="2023-06-19T04:47:28.630Z" agent="Mozilla/5.0 (Windows NT 10.0; Win64; x64) AppleWebKit/537.36 (KHTML, like Gecko) Chrome/114.0.0.0 Safari/537.36" etag="XNPSdwR9N5WlBLJM1ZPT" version="21.5.0" type="github">
  <diagram name="第 1 页" id="UYr_NmxXN-nMoccLG_qh">
    <mxGraphModel dx="1129" dy="690" grid="1" gridSize="10" guides="1" tooltips="1" connect="1" arrows="1" fold="1" page="1" pageScale="1" pageWidth="827" pageHeight="1169" math="0" shadow="0">
      <root>
        <mxCell id="0" />
        <mxCell id="1" parent="0" />
        <mxCell id="w1MHfI3NHytAB_1GA8F4-5" style="edgeStyle=orthogonalEdgeStyle;rounded=0;orthogonalLoop=1;jettySize=auto;html=1;exitX=0.5;exitY=1;exitDx=0;exitDy=0;entryX=0.5;entryY=0;entryDx=0;entryDy=0;" edge="1" parent="1" source="w1MHfI3NHytAB_1GA8F4-1" target="w1MHfI3NHytAB_1GA8F4-2">
          <mxGeometry relative="1" as="geometry" />
        </mxCell>
        <mxCell id="w1MHfI3NHytAB_1GA8F4-1" value="&lt;font style=&quot;font-size: 18px;&quot;&gt;完整数据集&lt;/font&gt;" style="rounded=0;whiteSpace=wrap;html=1;strokeWidth=2;fontStyle=1" vertex="1" parent="1">
          <mxGeometry x="442.5" y="370" width="120" height="30" as="geometry" />
        </mxCell>
        <mxCell id="w1MHfI3NHytAB_1GA8F4-6" style="edgeStyle=orthogonalEdgeStyle;rounded=0;orthogonalLoop=1;jettySize=auto;html=1;exitX=0.5;exitY=1;exitDx=0;exitDy=0;entryX=0.5;entryY=0;entryDx=0;entryDy=0;" edge="1" parent="1" source="w1MHfI3NHytAB_1GA8F4-2" target="w1MHfI3NHytAB_1GA8F4-3">
          <mxGeometry relative="1" as="geometry" />
        </mxCell>
        <mxCell id="w1MHfI3NHytAB_1GA8F4-2" value="&lt;font style=&quot;font-size: 18px;&quot;&gt;对其进行缺失处理&lt;/font&gt;" style="rounded=0;whiteSpace=wrap;html=1;strokeWidth=2;fontStyle=1" vertex="1" parent="1">
          <mxGeometry x="407.5" y="470" width="190" height="40" as="geometry" />
        </mxCell>
        <mxCell id="w1MHfI3NHytAB_1GA8F4-7" style="edgeStyle=orthogonalEdgeStyle;rounded=0;orthogonalLoop=1;jettySize=auto;html=1;exitX=0.5;exitY=1;exitDx=0;exitDy=0;" edge="1" parent="1" source="w1MHfI3NHytAB_1GA8F4-3" target="w1MHfI3NHytAB_1GA8F4-4">
          <mxGeometry relative="1" as="geometry" />
        </mxCell>
        <mxCell id="w1MHfI3NHytAB_1GA8F4-3" value="&lt;font style=&quot;font-size: 18px;&quot;&gt;对缺失数据集进行插补&lt;/font&gt;" style="rounded=0;whiteSpace=wrap;html=1;strokeWidth=2;fontStyle=1" vertex="1" parent="1">
          <mxGeometry x="400" y="620" width="205" height="40" as="geometry" />
        </mxCell>
        <mxCell id="w1MHfI3NHytAB_1GA8F4-4" value="&lt;font style=&quot;font-size: 18px;&quot;&gt;插补效果实验评估&lt;/font&gt;" style="rounded=0;whiteSpace=wrap;html=1;strokeWidth=2;fontStyle=1" vertex="1" parent="1">
          <mxGeometry x="400" y="760" width="205" height="30" as="geometry" />
        </mxCell>
        <mxCell id="w1MHfI3NHytAB_1GA8F4-9" value="&lt;span style=&quot;font-size: 14px;&quot;&gt;评估方法一:&lt;br&gt;利用插补完的数据集完成预测任务&lt;br&gt;&lt;/span&gt;" style="rounded=1;whiteSpace=wrap;html=1;glass=0;dashed=1;" vertex="1" parent="1">
          <mxGeometry x="658.25" y="745" width="227" height="60" as="geometry" />
        </mxCell>
        <mxCell id="w1MHfI3NHytAB_1GA8F4-13" value="" style="ellipse;whiteSpace=wrap;html=1;fillColor=none;strokeColor=#FF0000;" vertex="1" parent="1">
          <mxGeometry x="820" y="770" width="63" height="30" as="geometry" />
        </mxCell>
        <mxCell id="w1MHfI3NHytAB_1GA8F4-12" value="&lt;span style=&quot;font-size: 14px;&quot;&gt;评估方法二:&lt;br&gt;......&lt;br&gt;&lt;/span&gt;" style="rounded=1;whiteSpace=wrap;html=1;glass=0;dashed=1;" vertex="1" parent="1">
          <mxGeometry x="910" y="745" width="120" height="60" as="geometry" />
        </mxCell>
        <mxCell id="w1MHfI3NHytAB_1GA8F4-14" value="" style="endArrow=none;html=1;rounded=0;" edge="1" parent="1">
          <mxGeometry width="50" height="50" relative="1" as="geometry">
            <mxPoint x="503" y="700" as="sourcePoint" />
            <mxPoint x="1270" y="700" as="targetPoint" />
          </mxGeometry>
        </mxCell>
        <mxCell id="w1MHfI3NHytAB_1GA8F4-15" value="" style="curved=1;endArrow=classic;html=1;rounded=0;exitX=0.5;exitY=0;exitDx=0;exitDy=0;dashed=1;entryX=1;entryY=0.5;entryDx=0;entryDy=0;strokeColor=#FF0000;strokeWidth=2;" edge="1" parent="1" source="w1MHfI3NHytAB_1GA8F4-13" target="w1MHfI3NHytAB_1GA8F4-1">
          <mxGeometry width="50" height="50" relative="1" as="geometry">
            <mxPoint x="710" y="700" as="sourcePoint" />
            <mxPoint x="570" y="490" as="targetPoint" />
            <Array as="points">
              <mxPoint x="870" y="680" />
              <mxPoint x="860" y="570" />
              <mxPoint x="840" y="490" />
              <mxPoint x="790" y="400" />
              <mxPoint x="670" y="380" />
            </Array>
          </mxGeometry>
        </mxCell>
        <mxCell id="w1MHfI3NHytAB_1GA8F4-17" value="" style="shape=curlyBracket;whiteSpace=wrap;html=1;rounded=1;labelPosition=left;verticalLabelPosition=middle;align=right;verticalAlign=middle;" vertex="1" parent="1">
          <mxGeometry x="770" y="315.5" width="50" height="105" as="geometry" />
        </mxCell>
        <mxCell id="w1MHfI3NHytAB_1GA8F4-18" value="&lt;font style=&quot;font-size: 14px;&quot;&gt;Kaggle(既有数据集也有分类预测代码)&lt;/font&gt;" style="text;html=1;strokeColor=none;fillColor=none;align=center;verticalAlign=middle;whiteSpace=wrap;rounded=0;" vertex="1" parent="1">
          <mxGeometry x="827" y="315.5" width="183" height="30" as="geometry" />
        </mxCell>
        <mxCell id="w1MHfI3NHytAB_1GA8F4-19" value="&lt;font style=&quot;font-size: 14px;&quot;&gt;论文&lt;/font&gt;" style="text;html=1;strokeColor=none;fillColor=none;align=center;verticalAlign=middle;whiteSpace=wrap;rounded=0;" vertex="1" parent="1">
          <mxGeometry x="823.83" y="350" width="76.5" height="30" as="geometry" />
        </mxCell>
        <mxCell id="w1MHfI3NHytAB_1GA8F4-20" value="&lt;font style=&quot;font-size: 14px;&quot;&gt;天池&lt;/font&gt;" style="text;html=1;strokeColor=none;fillColor=none;align=center;verticalAlign=middle;whiteSpace=wrap;rounded=0;" vertex="1" parent="1">
          <mxGeometry x="820.75" y="394" width="48.25" height="30" as="geometry" />
        </mxCell>
        <mxCell id="w1MHfI3NHytAB_1GA8F4-21" value="&lt;font style=&quot;font-size: 14px;&quot;&gt;&lt;span style=&quot;font-synthesis: style; color: rgb(18, 18, 18); font-family: -apple-system, BlinkMacSystemFont, &amp;quot;Helvetica Neue&amp;quot;, &amp;quot;PingFang SC&amp;quot;, &amp;quot;Microsoft YaHei&amp;quot;, &amp;quot;Source Han Sans SC&amp;quot;, &amp;quot;Noto Sans CJK SC&amp;quot;, &amp;quot;WenQuanYi Micro Hei&amp;quot;, sans-serif; font-style: normal; font-variant-ligatures: normal; font-variant-caps: normal; letter-spacing: normal; orphans: 2; text-align: start; text-indent: 0px; text-transform: none; widows: 2; word-spacing: 0px; -webkit-text-stroke-width: 0px; background-color: rgb(255, 255, 255); text-decoration-thickness: initial; text-decoration-style: initial; text-decoration-color: initial;&quot;&gt;Google&lt;/span&gt;&lt;span style=&quot;color: rgb(18, 18, 18); font-family: -apple-system, BlinkMacSystemFont, &amp;quot;Helvetica Neue&amp;quot;, &amp;quot;PingFang SC&amp;quot;, &amp;quot;Microsoft YaHei&amp;quot;, &amp;quot;Source Han Sans SC&amp;quot;, &amp;quot;Noto Sans CJK SC&amp;quot;, &amp;quot;WenQuanYi Micro Hei&amp;quot;, sans-serif; font-style: normal; font-variant-ligatures: normal; font-variant-caps: normal; letter-spacing: normal; orphans: 2; text-align: start; text-indent: 0px; text-transform: none; widows: 2; word-spacing: 0px; -webkit-text-stroke-width: 0px; background-color: rgb(255, 255, 255); text-decoration-thickness: initial; text-decoration-style: initial; text-decoration-color: initial; float: none; display: inline !important;&quot;&gt;的&lt;/span&gt;&lt;span style=&quot;font-synthesis: style; color: rgb(18, 18, 18); font-family: -apple-system, BlinkMacSystemFont, &amp;quot;Helvetica Neue&amp;quot;, &amp;quot;PingFang SC&amp;quot;, &amp;quot;Microsoft YaHei&amp;quot;, &amp;quot;Source Han Sans SC&amp;quot;, &amp;quot;Noto Sans CJK SC&amp;quot;, &amp;quot;WenQuanYi Micro Hei&amp;quot;, sans-serif; font-style: normal; font-variant-ligatures: normal; font-variant-caps: normal; letter-spacing: normal; orphans: 2; text-align: start; text-indent: 0px; text-transform: none; widows: 2; word-spacing: 0px; -webkit-text-stroke-width: 0px; background-color: rgb(255, 255, 255); text-decoration-thickness: initial; text-decoration-style: initial; text-decoration-color: initial;&quot;&gt;Dataset Search&lt;br&gt;(数据集+什么论文引用了+代码)&lt;/span&gt;&lt;/font&gt;" style="text;whiteSpace=wrap;html=1;fontStyle=0" vertex="1" parent="1">
          <mxGeometry x="826.8300000000002" y="345" width="203.17" height="30" as="geometry" />
        </mxCell>
        <mxCell id="w1MHfI3NHytAB_1GA8F4-22" value="" style="shape=image;verticalLabelPosition=bottom;labelBackgroundColor=default;verticalAlign=top;aspect=fixed;imageAspect=0;image=data:image/png,iVBORw0KGgoAAAANSUhEUgAAAeQAAAHVCAYAAAAgiIjxAAAgAElEQVR4nOzdf2yTd54v+vecUympupIRvjJVVooFRw1NdROmc2I0SDWH0SETSzgnaONpe5ksOYVpfFtoWdzATtaFtrSezJbgDoUUOR24GzbltsXZQ26M1jQ9mpy4EiMc7Sxh1ZxmdGGcq0bNo/UVlopKtL3y/eP54eeXHTtx4ofwfkmRwH78PN/nh5/P8/1+P9+vf5DNZrMgIiKiivp3lS4AERERMSATERFZAgMyERGRBTAgExERWQADMhERkQUwIBMREVkAAzIREZEFMCATERFZAAMyERGRBTAgExERWQADMhERkQUwIBMREVkAAzIREZEFMCATERFZAAMyERGRBTAgExERWcAjlS4AMkkMXbyBDAA84cUBj7PAwimMnYlhZrFlF1JIJhdQ9+M62Ez2MBXvR+yPAFAH7yvNKLRFAMDtBKK3AadzM+pqHLA9ZixXYngGNtd2NNZWLbY2AEBmcghD1zP5y3B7DP1XZwDYsHVPB1x2s7UsQPjnG/jqWwAbGuF+wlbUtpcjd+xs2Lq3Ay4bgEwKU5nHC+77THwIM3/uRnO9E1XyOVH2EajbdQDNmwBkZpAUnHA9UdxxLLeFW2O4Yd8Od412+5nbSczbXKgzPQ+L+F7A1PgEktNf4as/AM3vBdFcplNV2vko7noR4sfR9eEUUH8AA+80w7GEcuWub1W5LGLhj0MIfVSNjsM+1JVQrswfE5iaF/+9od5tvBZKupfpP1MN504fvPUWOlC06n6QzWazFS3BXBSdDX7EAKAnjnS3q8DCSYTtHoQWWXbhixB+2BaGADfe/f0V7H9Ct5Y+Ozy9ABBEPB1AoS0CgDDcifquGABg/0e38a5H96W51Y+f7DiOKQCOnjimTcuVwczwKRy9uA4nPg3g8Zi8TrEMjZNhPPf2XXT8+jX46m1IXdyNHx1OAPAicmsQvhrTkiG6rx7+EdXxEMZw/KV+TC2yTwrPCVx5sbHYpTF17if4yetTSrlcfziKQ93nkYAPkWsR+GrNPpVEuN6DkACg4QR+N34AjQAwGYa9JQQACF5LI1CfRPgvPAhNurD/YgTv7srd0BbmpnDjdiZPqWzYvGkBnw1LN8N8apvxi7Y65A/1U+hv+QmOTwLOnQH87Zkgmqum0H/Ej7PDM8ArV/DPb7oLfD6fDGKvbELnJfF/HRdv4/Su8tx4SzsfJtcLANwTMPOHCYyNRDH19N/ib6qO40ddMaDtNOKvOnH/W9Uq/mwztv7QgSp1cDfb48QpdPYlALgRuPAatud5kLFt2orGmioAAsZe70L/9PKOR+OLAzjhKfAIMRuFv8WPqAAAddj/SRzv7izuXOTuG9L12qRboKR7meT2EHa7DiEBwHdhGpG2pTz+aB8Wlsv0YYNWReVqyHLt6O4UZuXXkpfRf+ZGgQ+lcMOwrL6GuYAbvxuCAACO7WisiqLTLn5JvAPTGGwv9YLP4ObvY9K/96N5m/HLOzUelQJgIw625PsSpjA20I/EJHD0jBvvb1S9dS+J/mAIiUmgOrkfvvoFJMcT4ns7muEyDcZ5fJ9BajyBRLHLb1soYeXA445aQBXunTt+hu2155GYnMDQYALNx9zQH6GFLz7Dh4L478bn3DAL/999D+D+fXxX7QCQxPm9Hsx0D2CwR1xf5vop7O6KmXwSALyIXGvF2JvHkW8JAEDPVhwo8PbUuaM4PimVp3YrtjoAwIYN38+I19OZLrz69P8wvWmqH9oWM7R3E4YKvG96s89jKedDQ/VQBABw1KLxZfk/AhLvH0JoRLV8WwTTF3xwIIOJ93eLwb2gBML7EgjneVf9nczMJZAYX2x9hdn2FHhzdgxHX5SDsQPN70TwtiYYZ5DJ2GBbzUqqkJK+qw5sdhqvq6kPd+N4PP/H5QeQmZHd2N1bniIFr6URYECuiMoF5P/3Fo6/GdK+9vl5HP+8yM8rywaxVR2QF25g4pJ49298eSdcj8wUtboFYQZTU1NIrWuGr8kGLAiYSn6FDGYQuyAttMOGhVtysLNhs6sRDiQw+oF8Q2xEdSaBxBeqFSs1ikYc6DuB0WfHsHWj7ht/H6j6cyccm/4Gf7vXCaRjSMg3ukemEDvTr1nctq0DHU2L3zUCn9zGwTzPBzfe34TnfyP/r4TayfxX8hpw6qXdGHoEwD0H4FgH/PMpdLaf0tVSMhj7JCwGNDRjf4sqHNfUwgsgBmDmawH4sRvBSyNwdrfh0KcCEuMTmOpyw13MzeERG5w73HAb3riP2fEkUgDcjvwPYwuTYRx9PSn+x+HDycPNUiBzwvf6aURHDmEMAqK/PIbmp/O1BJTLSp6PPBzNOPCyF1u3bUXtl/L3sgq1O0/gxNMAZhM4fmFM8xFbjRvuHfnLlZgWADhQ98xmbMhzp3Gqun8Kre9+KoHkHekzTW7U/tni69OYjeLQX/gxdAcAnOgY+G843a5qUs5M4fzh/4qjX7fjyqVgcddcCRYmz6N/ficCUqvPQiaD+wDmZ+T701Y4qjLIqJp4qh+zYSFT+CGl4AMIPXAqF5AfscG9ww18P4+vvpBqIBtdcDurC3wod3PNLWvTNCFmPo8iLABAI3w7GgEUCsg3cPaV3Zj5PIEZqQbnHZiGrwlAegKn2vzaGtd4GJ3j8rO+2ETY/Ad5ewAwhKNturqPVKNA/Di6PryBjL0aU5eO4qhyIx3Csa4JVH9fhXX3h3A+vh2v/X9juRqUyUOKd+Bn2Dyeaz4DAPR6YO8FggMR5aVH1+V/2l/3qPb/pddOBMx8IaiOroCEIP5Pc5O4NYRTUlOtY99+tG5aZLWP1aHjXBzV9mE4jwSUvkdH+yDS7UAmfhSbfn4egBeRPwxqAmPzr6ulZrsNaHymTgyomTEc3fQ8zgOwPfaofmui2She/csQxHDsgO/Xb8OrbpXY1IG/PTeGsZdigBCF/y+qUf0Pp+FVbVsuHxYyyNxfZB9NVcNmk69kAdEPyns+1M2tAKTrxYvIwBbx/9t8OPiKDw4AQkpeaAO27xFfw+SCLiA70PzOFTTnK43SYrAVr53L1+WiJq1PGEPo9Vv46XsBuFTBVV3+jtAVbQvCvSTOn0vB/aJ5n3Dmn/vh/9+OY0wA4HAj+H8MIvBj7YKp8fPoH0kBCGP3HpQ1KC9MhvHcX4aQEByY6B7AYM9mjB2u17UuxHDomRgOqV4JXkurHjCdcO2ohXh3VN0HJa6XbuP2i+bbnx95FdsOS3eyv/oYt1/dWrC81fkeamjFVS4g/3A/rgzv1/a7PP82rhTbh2y6bAqjF6VQtmM/vA0A5nLvzn4ewqGLN/CZUoMdQ+zSMvbh+ykMvV+o8VHlXgqJcfGWP6Op+aSQHJe/WjOou/cVRj+V1umog/upDQBUNYSNrvy1AJ2h4G5M5KlJ3Fd/m1EFp1wTWoyqptS87wTcJjVFm1MVWN47rjSodrQ3a5tPH7Nhg/TPzL27WMhUISPM4Kv5u4CzCjc+OIqzk5vx2vB+qZl7AVO/Py9+oGEr6nTbVprt2iKYfqZOfPFeBnLXWt2fm9QSNX2KgKvnIt43aZJ2PnsCkd/dgP9TAbgzhM4Xq/Dxh++iWVcGIfZq0U3XWup8hhU4H3cWWc+IH/V2P9AWQXxX7uVUvqZ4fVN3XjH4G+zw530/t98Lt/rx3I7jSAAY+ve1iJ/zLZ5wiRSi3Xtx9FMB+HgUp/9+EB318nsLmLl0FM+/MiQ9xHcg8g+nTVs3nG2n8d8G7sPTFYUwGcbuPY8i/mlg+clo0sNeQgAAAYnxUdz4+eYlrKgDbw/L14fqPih7zJa3a2JBfb94dB1sq9omT6WofJa1mlTLW6qFyWGcl2uTNgGJvkM4dOUzpT916tMhQ7KTs8mLnTs2YLbvPMaQhypBQ/2kPn91CGelPsfGY3FceUEKApjH6CvbcOhqbhUO7/u4fft9ID2F88d2I6T0CwXw8a0ObKlaJ2YfT5/Hbmkf6l6N4MpLjQAWkHizBrvPAHj+bZzwOJDCCZx48y6mhsOI3gKwcz9OPONE3QbgprTm1GRC8xSdnw2uPQcWTW4DoKkpbX3uAA40AcAUoh/Ow/VsM5yq7/rC+FkcU9UCHn1kAanJG5i9O4+Z6Xl8M5uAfLoSh7eh5rDZBg/gFwsAqgAs3MDYGfFVY190BnflyFulamWZm1VaOR7VXe2Z34fR+YJ8swQcz0YQ6XblSdpywtd3EbO3PQhNApg8j+dbZnHi/4zgwA/NbnCFm2pl6qbYnPKfj9S/ml0vjXA+Ju+89PBXo21xqnrMKbZkfTuLxGRxV9NSVTX8AsGeUXh6kxA+PYZf7XQh0l4oJC8g2ecXH5IAOFytcMvBOJ1E/xE/jo/IZW5G8C0fNswmkJi9j/npGczrWzLS96G0oUyG4HkWiP+DtqYuMzzsek7gyi7dQrqHPTQFlSC/8N5tNL93A2c3PY8wVPeP5Flsei4MoBFVKzbQYAGpW9/g8QZncQmKysNXcUmwtHTWCsjLImD0g5Aq4DqAb0NIaGqjTrjadmLzvfMYkvqfI9cCcCGJcKGAbOoGhj56VOob7cBrf+lSNQ8voFp/ZKuA+c/PI/RGCLE7gMPhgCAIABI49UIYqeoDePvX+1E9/KGyDzPzGYixKIN5KfPNu1G8QTk9B3DAIyD6B+kG6/oZDrziAuaiSnO3ug8512wVwMe3D0JptHokF0wKJ5C04sTwfjRWVaERYhrR3W/F0i2MR3Hsl/0QfunE/o9+J2ah30ui781+CJp1fINE724cKqYpVgoQtk1OVN8Xj1/m8yjE3nQXfC4nMkqHWzVstgVk0tJ//8MGZajOwrd3pX95Uas0my5g6kIX/uuRmPLA4ng2gviZRWpkj7kQ+Ic48BdSUBbGcPw//wQpeZ81tuLAr99H6yJNtdq+fK1yno+818uk1AWz7TUMXJCarIdzrT6Pe07gigcFa8RKElpmBtGTR3HsXAICnPC++bc4sVd6KBAS6L+YQvNLHah7zKQJHQBQBddLbyM45kFoUkC0y4/NzhEEmszDRmr4Veztlfr9m4K42Kc6f5mvkBhRP0CMIbS3tG84JkPYuwe4eMkYlA0Pu/rkyC9/C39LVAnGDs8JfDJwAI3SeqpsNlTNZpQuBvcPG2GzVUHIyK/UYsOKJFbdxczFV9F2OIpH95zGx+90lDT0i1aWtQLyov0buSdKvUy8T1MbA6rR6NoPt2cGmXgCUwC8A3EMtjuQ7JMDstGGx4p9LN2K1z4dRHM6ivN/sKGh4LKq4SYAXC9+jLd/NATPS2LdrbraAeGLfvif0SZv4VYK38ANJ1L4SvqsabOr2ve5f6r7kHPNVo9inc28eatwAsl2LACAfQPkvN5UOgPgO1w+JwVex040u2wAFpA8dxThW/p1rMOGTQDGoQRcpYb4xAGc/nA/WmvXofoxW26sskLVHYEkjrdswnH5rbYIpi/UYfa6+F/XY1CC9fxs7rZ5P5NBxmaD7bEqbG7cAgfkgOzAurkhHHqu2O4HBxwOiA9UTfvRYQjGgFmfYKnKdz6KIDdZL/aaie/mZzB2JoS/flM8nnXtQbx/uANba6oApJA4cxyHpPfOJgRcvBTIv7LHXAj0ncBnO44jiSRCf/kqaq9FDA9KqfhR+Lui4n42BXBFHzQ3taJjzyGMKV1S6j5YADWNaK7bAL3qmjrUbQBmPnoVRz8VIHwRQugTL67sqzMsW9BIFFHpn64XP0bk18a5BhZuT0mtN140bhLvO98I8pgT58oE5CvH0Tkt5excOoRt15M4/fcn0FFo/HNTAOl0gXNGZWOtgPwvYxi6WCgJKwXDPR4AkMGN/35eVxsDHt/1Lq48HUWnFJCL8fj/YnJhqoZjpZK69x65j9T7fvzooyB+938F0Ggazx1obu8ARhLoOPMxgs9kcOMjuXb3UwRH9sM2fApHe+dR95MZnI99A4cgQBhP4JbQAef8Dalp14vN6hrX99/hvhyAPz4Gz8dJ/LQnl9QVarHDWKcJwWPXvmoYDrYjgMHD28XhRsp4Uol9g3JjmRW+QSY+hJD0cNPccwDN0k3k/rdmR9yG5jdvY643F3CVmtIfAWedE7Y8z0ML4+eV7eRZAvIFkHzdg02v69+XAqTU/VDVFEDk3Dfon6vGzNv9SGgSohYX/OQ6HFf7UX34gKbpvMrZjBNvFk6aMVeXfwKOMpwPg+RlhI58hq3P5El0W8wPD+D27f0AgLufH8eP3sz1M88Mh/D8sPHKc7YdwN+8vF8MnN1ppLvzrLvhACLvJfCjwzPoOPYammuNqZnOp7ajsek8krM+RD40S8Cywdt3G3PvmT3cLc799EVkbvuR6vwY7+4xBmPzccj6Jn0Hmt/5BJGXGk0fgL+als6jY4uUD5HB/G3pe7OjDrVVMNzTlm33+4h/+BWO/+UhMeP8zhAOPZPA2K//Du+/aF5OWj3WCsilDHvSsKHO5QUu3IDDIUAo9Sq+dxffLKVc36cw9n5IurBDOHrGjZE8fZC2ZwK4Pn0adY4Uhp7z4NDnUI3pBNB+AlfaAdxLYPPTGWC4E0fHo5j4p3fRIIyJDxRKIpOAsSNtePXCTO4LeyeJJICflrjrpmybsfUZt9h8Of9b7XtVNqxzABCAqVQUp96XHoQaAnhN6e+rQu1TXgALOP1eAw4dVrVpPKbto3RulAc+TSH1NeA2zcLOYGxY3fztxekv3seGaP7m3mI4n30X7wpjOJ6QboLKUB3AUe/GZl0FStPfu64OHe+d1i5we0yanWopZpCY3Aqn2XC2ZZ+PDJKXzuLy5wl8LrcifX4eYXgReWVACawypXtj12lcP9MK7WGoFm/aj1QpWeG2HR04/WadOCnLIwtIxUM4ryROOtG87wAOvLIT9z86hL9++xSqz5zQZKgDAO5lkFG17qzbdQK/c62Ds6YKyGRw97vce9/dzSDzhBvBD3+Hn917HHU243ChqkfEY/ONMpNZ6Rp+808I1C++nDkX9n8Uwbt5Z+sSMJOUrrvnXNgMAAtTSMhDLBuceBwrEJAB2Oo7cPq/N6Lu5edwPC4ASCH2y5/g1vV38Xfv7Ucjo3LFWCsgS4lJ+aWQeNO8r9dZtwXOfR04seF5dBadGHYXo2/a4Tkj/7/ERIpHnPD1DWBqfDf6BSDZuxehpn/GiR3fKM2nsuSHPzL2mRmaBMWhVPv3AFOZRmB8CuevnkL1LWnqAO9WpTa28O2M9su6sRn7O33YWT0r1Yq1M3zlhqEsNzHjcdTtAPApgA/7pT5dB/b/8qCmydC5aQt8A+3ocA4XbLZ1/Aex6VhAAlMzGWCT2d3ABrenA7iUa1Kuttl0Q7dcOHD7NvYbPgsU6uqAoxknhsXBO+rJPbYeHjBMImPe76liNra+BN6Bn6GjyAlBcoo5HwtIfR7Ged0kHs6mOthmhtB5blT7hjwkL9mPo/uiqjcaceDcCeNQJ3sjfrothaGBU/hwWLwuHfU+vHj4F+jwuuCoAnA7ikPDCaTuJNDZMoUDfadxQjUTW/LcpsLHViX83Ka8E40A2tqr8C/HcXyJiaLBbQfyDutaVM/bBYIxgMxN3JC7odIppO654bw+CrnTav+PG5cwI1wJbI048NHv0djbia6+BAQAqZE+9Le1Lnm2MFq+igVkeWC8ZtDm/9qMjr2F+5DvygH5u7u5pJ5qG2wbd+LvDjdioaRhTOuw9Wkf+qXeHsczHXCbdQbnybIGADzmRvDcAVxu74cAAf3dITT/j9bco+1TTjiAIrOdq5VksMZnfGjEFKYu5W6yL+6Qw6gDtY3N2F+7FZgM4fw4gOdfw7uvuJCJH5WW2YLqe7lJSjIzchUihakvEpCPuuk0eQX7Dh2o3SxVyeRX9r2PoL4ftSmASBOAyUV2eWMDWgGcBzD6LzN412P+qGDb6UNg42cI3zGvM3y3kMlzA6uGzbZOyZ711ua/2Xzz/+RmidtiMmtSjhuO9SYvr2/AiTdPFPicZGEeM8kxDH2uaoh11GFDvuFsyz4fDjifAhwzLqxLJ8Ux9z1x/FO3mNT1/Hieed2EGWUss8iGDlUtFgtTiPb249QnUWUcP55oRuDl/di+CZifvoHLA7lj6vR4UXcuhhkhgf69Hky9dBKn3/TCuSp3IV0fcj4rlE0uXD2KY8lG+H7eiu1P2FBl246Od5ox+voYZi4dwraZMXhReEbA8rPB3fMJRpzi0DBHniF/tHoqFJAFjBoGxgP4zfPYVGwTpGpZsQ+0EY02QN/Fu5gNrg5ELnZgQ201qu85sZQRglU7XsP7+y7jr+8HxazFx5KGcri600i39MOz4ziSaMbp5Mfo2AQAKQw99yMc+hxw7PPBLX8fGrzYv/O42LQNAE0HsVNVe2p86WO8CwHRfSGcV20n9T+l2s4OB+6O7DZpLdBOXrKUafKcG38KyLncjgMYeLMZNkyhvyuBul92oNm0lpuHrQ6NOwCMA0LsBqa6XVIrgIDEyFfYvMsNxyMAqtwInn0R4V3mNVAh9qo4/7JeWwTTF5xQWjz/fb4+0xSm5PFP8MIYtxdUczrbUK2/s9/LIGPfWuCBcgGpL0YRjV9G7FJuUgfX3hM4+Fwztj6xAVWPSMlo1ba8felmijkfrr9KY7pbm1wIANjoxZXhWoy950f/F80IfnQALs3Y9QyS5zrFYXqODdofVqmy4f60KhgDwB/HED48VrAGKxKQOHcE4W1bcXqXA3VtV3Dlx/mXnhnejaMXxX93nLwCX4Ecqw0bzV5Vj+MtoOjx1SW6P4/omUOInjmkzFnd+NLHiG88Cv/PzyM5GVPCceObHWX78ZHFVaFuz2n87qn9uPvDFa6V06Ks1WRdCTVusVl3LorOHR7ENjYj+JsIAovNKKVhQ3PvNJoLHs0Uht45LgXqGcTOnceGrp2oHvGLQdfhw9uvaCfOUM+YU/dMYxEPC6qg0rQ5t7xhBjTjTD9A4dl+lL7D2SiO/jIX0F1HOuB+DIAwi6nh4zg+fLzESfKdcLe5gfEEcCuKxK0DaGwQ92Vi327sls/HM7alX61zqUUTtlLDv0JIzmg2mXQEqqFnZkppctV87uJxdF48rnlNTrJblfNhr4PblUHyPgCM4cNzDWj4MIhmB4B7M4i+HZLGzLsQ/Pu3dYHCidYjp5F5JoOF+XlUbWvO9T/ORLH7iFguZfhdeh7ztjrU2cUJO/qrAji9SyyX7Qk33LofgdHs7e9VW210w11y0/7KWZhNYjQJNG/Lv0zqjhxutXNWOz3v4uK5DOpfynUNVN3NQPydrNVj+yETuqygQgHZgdb3bqP5PdVL3y9g/o8TuPzeKQjPfowTO9ep3pvC2T39yOzuwM92NMBZs077JFdd2qWUexrfAOVBe25W/OGKO2P4Rv8LNoWyrGXqI7lwH3cNCzjR+s7HWKg9j/4LYxi7cBRjcgIH6nDgzLu5GYTuzWCouw2HVDWZmd/sRhuu4JNCPxZwO4GYFFT2P10H/Iv0umFWM5OZfgBptp8FZDL3AdxF6tYsMvfFSTzupzfAvc+GoRdVEx0ASF6MIfnzAFzf3pVmxDKfJL8Q5zM+NCOBMUzh+HtReC/44Lz9lfjwcmcMd7/XV0fFeZttX+decWx7DVdGfmFc+Z9thg0TBbefuqoaQgPA+8rPTH4A4zvcVxKHVmhIit5qnY/HXAhcuoLv9uxG+Iswnq8fhnffTiz87jzG7iA33aTJeGBbUwd+dj+MV1/sx1hyXW4ijercF0UcfpfB2DtteP4C4N7bjQOvnMDpUlpSLOa71BRifxjC0OAoxqYFsSVGHZD/Tb20gPn/W/73dtSpRkosTIbR9Ya6nx5I/mY3fvw/T+CTD9Q/hTKEY+0Tuakzy7cri+PEIKumYjXkKpsNVVhA5o8TGP0ohqHYkGrGogQC7R3KcI5MfBRDk2MQJsfE5tmNLnR4O9Dcrvt9XTM1TiXoxj69jKS7A3WORjQqv32QQWYhhdHzH0o3ZC+26tMMC2Z/L2Bm5DJm7E4xUN6fR/LSr5TkDPUPGlQ76uBq8cE7O4Z+zfpm0P/cjzG2J4j391fj8l/7cV7ue21ywz2bQEKQv6hBXHw/IP0+smrYE4DUFzEp4a0D2122XED+egqJL+5rtqetHQuIvfKf0HmpUE6nC67rSSSlcrmecSP1RQLCrRCOnXHh3ZoxaUa0VjSYNhkWsKkV+/eFMHZBAEaO4a/POfFaVUxanxeNdfpAIM7brPZoTSPc0o1O+Sk6Wy0aa7/D1KVRpTlQPY57YS6B375+SDWbkzhByIl2BzDZj929YwBsqGvaCpswhiG5Bu1YZ2hSdhUaxgMAmMH59m04Og5tdr0pAbFX6st6PhbuLaDqsbuabGS1hUdq0doVQGIyjCRSiF2QO0Lq0NFzAu31xt7XzK0oTr3zK/R/Lh+/CSRu7Yfrxzbg++80yy7ciuL878T9SVw8isTFo3C2BXHi8H54G1YjMBuH+5VMFWTDXT8pvOzFUwjV7cf2DdXITEdx9lPp9YZGpTskdfUo/HvP5+ZQP9YN2z8exflJ8Tepf3J4AyJPyStUT7FLa1XFAnImfhyew/3a/icAcNTB51qHBaXNZgEL67bixT1TGJL73u4kMXQmiaEzAODGifErOJB3Zo46bNkD4BKAz4/DU38834KitlZsr4FmDmx1k69xqsMqrPt+DJ1tZvMXO+Da9DjEqS9/iN1ntDvrbDuBwLYZRMNDSAgCbDND8PxnVRV8YwcGPzyNZiGMthbxxw+Ef7qL+9Xq38EVeR3ziA1L+ed7muG2q8ZuXjyK3RcL7bQDG5yLDbBQ3fz/6go+6anF6M/Fvu9k724ot6e2rdhS8v3VhuZX3oYv5kdUEDD2uieXSS+fD41G+P7KB9u/HM9NlaqyMPXbPD/V2Ih1cjeAat5kmeMZ1WxPVUBmXBy/nhjXrsuxx1VU98HQc88j+r1uLnJAO7WnqfKfj6/OebTXS60DC7/vR9fJMVp+kxkAACAASURBVMx8mTB+DxUzGDr8EwwdBuTEqMa9Z9E69TPs/o18hTngfultvLv7Pk71dmK3tL9qVQ378fGkD6nPh/CrN88iOi0gNRJC58iHCFydRrBA/7ElZMZw2ew75KhDs/cX6NjXDEfNDLY4gJgAQBhDuMvYl+56zo1GLGDqw04898sxqRLggO9cHJFnncALjXj8WQ9C2I+P3/Rh3adyMl/hH5dYUZwYZPVkK+X+jeyp/7Q+u379+uz69U9nWw6eyl5O/il7/98KfObf7ma/SlzOnjrYkn16vfTZFy5n51WL3Dhp8nrqs+yx//KktK38f08/eyz7WUr6zNeXs3vl907eMK5//d7s5a+lF6fOZncY1vdktu29G9n7Wf0y8r6qSn33T9nPPvos+6d/+1P28v8ulvPJ//JOduJfVYtcP5Vte/LJ7JF/vCsevt8dU22rJXvqD/ez2dTlbNeTLdmzU7qyPnske/b9s6q/I9nnpM+eSorL/umTrmzLX7Rl2w4ey559/7fZy2MT2YmpP2Xv3r0rnpO7N7Knfro+23JiIntXOa6j2Vf/o3af5fIpkqeU9+Vt5XM/eSrb9uR6434Z1iUee9Nznc1ms9ffMTm/uvORzWb/FO3KPim/96vPsvPqa29+NNtlso4fv/jb7M1vC++H7OYHO0zK8XT2yNjdRT9b9vOhOSbSNfLtRPaY+ng/+ePsc92/zX42czebzd7Pzid137X167Pr17+aHf3XbDb79Wi268n12Sf/y7Hs5S/lEtzIvqPf3yePZD8z7O7d7J/Gzmb3/sf12Se7P8sufjTU37vFryPzz72a/W1iIjux2N/5V/Ns53524o0nVdeB+f3qT/94THcNq66/4OXsV/K18614/tavb8ke+cc/aVfy7VfZr1L68p/Kqu5C2VPSevdG57OLmY/uzZVDdS8j6/lBNpvNVuphQPi8H6MLbrTubBTHKpZiQcDU559hpvZn8DXkPpySJwKwb0XHHpe2v7XQT+PpM1uV30MGsKER7iekNakmMKi2SZNcqJcFUL1hM+pqHNqMVGQwc+suNhSYjUpc/xRi49Vw76oz9hULAjIOh/j6vRSSf5jFfQDVNY1wSf1xC4IAOByoUh+LJ7w4oBkTmcLYmRhmANTtOoDmYhPYMhks2LQTeyCTwtjVGBIz86jbeRAdz+gaYtMzSEyLvZmmQ6wM2xDXN5OuhnOnD95CU/rl8/0CMvd0J/oRm+58AMACpj69jMyOjlx2u576fJtO6ZlfZnJINVFINTbU16Huqa1orClTLmsp50O5Rquxob4RdfYqAAuYutSHZNVWuFxbsbnWZp5l+/0ChDtT+GrmK0zdb8Qv2sVs3MycAFuN+sBlkLw4hBsZALDB+fRmNDS4ND84otsBZDL5fyJULaWa4KOUazb3uTp4XzFOX2lwewz9V2fMtzMXw/GBu2h9uQOuQt3yZtefWeb8bBJjC41ofqLA9aBcf+qf51QNGy0iI19zHRruBWQlFQ3IREREJPp3lS4AERERMSATERFZAgMyERGRBTAgExERWQADMhERkQUwIBMREVkAAzIREZEFMCATERFZAAMyERGRBTAgExERWQADMhERkQUwIBMREVkAAzIREZEFMCATERFZAAMyERGRBTAgExERWQADMhERkQUwIBMREVkAAzIREZEFMCATERFZAAMyERGRBTAgExERWQADMhERkQUwIBMREVkAAzIREZEFMCATERFZAAMyERGRBTAgExERWQADMhERkQUwIBMREVkAAzIREZEFMCATERFZAAMyERGRBTAgExERWQADMhERkQUwIBMREVkAAzIREZEFMCATERFZAAMyERGRBTAgExERWQADslVNhmG322HvS1a6JEURhjtht9vROSyUbV12ux32fVEsf41ERNa35gKy5mau/+PNPWcuis58x6mCDwHJPjvqu2IV2z4RUaWsuYBc0Igf9WUMzMk+O+z2TkTnyrAyvaYA0uk00t2uFVj5Ino9sNvDKCUsO9oHkU6nMdjuWMaGk0j0AoAXkVtpcf8v+LCcNRIRPSjWbEAOXpNu6Oq/a0HxzRE/6ksMOEYCUl+WoaCV1hPXHac4xKMUwtkyND+XZC6FmwDQ1ortNau7aSKiSluzAdmUVOuM9wBACJ4HpH92dbnQMeCtdCGIiB46D1dAlri6pVpg71lDc7NZH7Q+UUlsqq6HfwQAYvA3mPW9JhE29M+WUCs3TeoSEN2naibX9wOX+QFji1PdWCzvj7gP4jHINf8XTuqSy52vrNK6G/yIAbmuBbsd4cmy7hIRkWVVPiDLgWdVk67kWmAMo9dzWxSGO00TimJd9SVmDycRtnsQMrwegmfZTeWSuSg65QAm6/UsPyhPhsVj0BZBR5P5IqnhTnh6Syin8vCi0uthkh0RkUplA/JcFJ0tqrA14kf9KjUjO5xbAACxOynN696BadN+51jXkBJIXd1ppNPTiLQBmgQkTQJWEHFN36y8fDn6ZmPwt/ixRdVPPi03M5vU+gvq9Whrri0h8RjkTaYKwd+FIpOuBERfFx8atH360rEY8ePIsADAhUA6jfStCLwA0BbBtLRsIM9DARHRWlPRgCxcH4WhPtqbKE8Ncgkc7YPGLOGmDimQ3kSq6EDnQiAdgDY/2gHfy1Jw1z0ELIV3YFoTrBztJ6VyxjC7zKzvWFd9wdpr8NogfMUkXU0OwT9iLCvggO8dMfiW41gQEa0Fj1S6ANYkILrPpJl1KSbDsLcYG6+Xx4vWbfp6qQPOpwCUWuaeuK5mL++7H/V9TpNhV0G4i6y1JsfF/Y511cPelWehL1MQ4OLQJiJ66FW0huzY1gpDPm+PG6sx8lZI3QQAeDc6c68pCV3LDcaqhK6yB+P8nBvLkR3tgO+C1KRcavM3EREtWWX7kGt8GJTHBgNi3+GqTISRxFBXDJqapiqZadq077dYAqL7xIQuw1ho9b5amlTbLhPTMeHpYvqgiYgeHpXPspZnpFq1m3MuYHoHTip9oXKNOfiyvgwpzJZUW5aWN8lSlrdhffKMWcsj19hD4xzvTUS0mMoH5FUkNklLzdFtEZw0meYx9IE6mSnf8CW1PElUI34MqcbQ5htSZT25B5blzpjlaD8ojfc2G46VRHilph0lInoArdmAHGox/miCEhB74obauNKfrZqUwm73INQTydNknWvWVbbVlwTggrvHWIb6LiAyYMEma/2wJ6X/3IvIO8ttsXAhIDfTG7az2IMOEdHDZc0GZFPyvM1m/dQ1PgzK42DVy3dvz7s6V7d5/7KrW56eU+ZF5NYgfE7jspbUE0c6XeTQpsU0BVTzY6sFES/XNoiI1oAfZLPZbKULQURE9LB7uGrIREREFsWATEREZAEMyERERBbAgExERGQBa2Yu67feeqvSRaAV8MYbb1S6CEREq4JZ1kRERBbAJmsiIiILYEAmIiKyAAZkIiIiC2BAJiIisgAGZCIiIgtgQCYiIrIABmQiIiILYEAmIiKyAAZkIiIiC2BApuWbDMNut8Pelyz6I8JwJ+x2OzqHhRUsGBHRg2PNBWT5Rm/6ty+KB+v2LyC6Tyx7eHIZy8gB84HbfyKih8eaC8gFjfhRX8bAlOyzw27vRHSuDCsz5cD2XV4AQGg8T+1zbgKjIyi4jJC6CQDw7toOR9nLSERE5bBmA3LwWhrptO7vWlB8c8SPensYxTewmhGQ+rIMBV2EY1srvADQmzAtr3B9FDH5P1+mTB40BExcFZfY4mQ4JiKyqjUbkE01BZBOpxHvAYAQPCX0eVZMzXa0tgHATaRMauKpO7Hcf0ZGMWFYJoXZEQAIwt20UoUkIqLlergCssTVHUcQAHrPGpqbzfqg9YlHYlN1PfwjABCDv8FuktSURNjQj72UWrkDzqfE7Yxe19d/k0j0AmiLINIjLjOrD8iTCYQAoMcNl37Vc1F0FtXPLu+LWH5x/4tt+jceh/z94URED6/KB2Q54WhVk45c6BjwQh/khOFO1HfFDEvHuupLzAZOImz3iIFQIwTPEoKya4fY1B67k9K+IQVb767t8EnL6PuRk+NiKYI7tOE42WeHvcEPw95K/ez5gmZquBOe3iILPhdFp8lxCLXYceRqkesgInpIVDYgz0XR2aK6XY/4Ub9KzcgO5xYAxiDnHZg27XeOdQ0pgdTVnUY6PY1IGwB4EbklLdutDnpBxDV92PLyIZwtdahPk1uq0Wv7keVgu8XpyLOM3M/tRW1N7nOCKqjq+9rF5nwg1GL24BCCvwu5/b3gK5AklkRYDvg9ccM2YiPGBx8ioodZRQOyJiFJlid5aTU42gcx2K4LMU0dUiA178M150IgHdA1ETvgezlPTbeI9bmlfu+EUnOVg63cN+xErb6ccgZ2Wyu21+Q+Jyd5Ba+lEdD1K7u6cw8OCZNacvDaIHw1xtcN5Kbytgimu7VHwtWdC/xERCSqfJO1JeXG9ub6ipdI3STfYmzENu3HNZlkw7lRHP50MyXVruVgq/QNy0OkVM3wc7OIQTfcSQnSEXSYJnnlhlop21IUnxgmD7UKvmxei5b3h4iIRBUNyMqQHjWz5KMVoIzN3ejMvaYkdC0zCKsTmcyCsFqND4P64VmG5u/csYpdnYCAXOuCum9YWUaqgWuatEsgN+cvhyb7m4iIFlXZGnKND4Py2GDAtHlzZSQx1BUD4EXrNilYTYbFhK62CKZN+36LJSC6T0xkMoyFVu9rqeThTyOzSCnNzroaq7xMbwJJQ5N2CXsgPawQEdHqqXyTtTQ2ePEkoXLJBUzvwEmlPzR/E6s8jrdY0vImTcLLC3RyU3IIiUl5G7Vw6pYRh0iFkBjWN2lLlMDux5BpJnV5JhKRm6TNZw/LbYOIiESVD8irSGySlpqj2yI4qU/gAhD6QD30Kt/wJTWTsb+AIeDlG1JVCrkp+eYHZ5XhTvo9kIdI3bwqNmmrm+SlteSm42wxDm9K9uWOj3kfc5FlVWYY8+j6wwVE9y23S4CIaO1ZswE51GJMlFICYk/cUBtXAog837XdDrvdg1BPJE+TtVwbVW2rL4lcRrS2DPVdQGRgGU3WgDK0SRwypGpuL3EZR/uganiT9hiJw6GCiC+3taLGh5MDUoZAr0e1DTEYe9uY1EVEpLZmA7IpeTysWT91jQ+DtyLaJLOeONLd2/OuLjdESP+6fliPF5Fbg/DpK6slywV77VCmUpeRxlKb9Wn3xJE2DNlaGkf7oMk2xPHZJ3eVYQNERGvID7LZbLbShSAiInrYPVw1ZCIiIotiQCYiIrIABmQiIiILYEAmIiKygEcqXYByeeuttypdBFqGN954o9JFICKqKGZZExERWQCbrImIiCyAAZmIiMgCGJCJiIgsgAGZiIjIAhiQiYiILIABmYiIyAIYkImIiCyAAZmIiMgCGJCJiIgsgAHZqibDsNvtsPcll7wKYbgTdrsdncNCGQtGREQrYc0FZDkI2e12hCeL+0yyzy59Joylhz8yl0TYblfOif6v2HNERLTWrbmALPLC2waExosIr3NRnO1d+RKRuVBLGQPzXBSdy2xVICKqlDUakGPY8lQQ6D2L6FzhJYXro4i1BRFsW52SPbTaIphOp5HW/E0jIh33UEsZmtbnZhFbfkmJiCpijQZkADvcCCIG/6VCtaUkhrpi8O5yo3bVCkY5DvgupJG+FYEXQKzryKIPUEREa9XaDchwoWPAC/Qm8vYLC8NnEUIQB9udhVclN4UW7PuU+0qlfmg5KUv6y1/7ExDdZy9yWdXW+nT9sfuiKKl+udg+Ke/n61eX9rfU7Zqp8eHkgBfI8wBl2Nd8ZW0Jif/v9UjLdWoDvMk+l6X8RERlUPmArA5cZb45Ora1wosQzpoGOLF2jB43XAXWIQx3wt7gNzSFFmxinQzngoMk1lVvsnwSYXs9/CMwLvvBzTwlEgOhR9/vPeJHfZFJaUXtU812tLYBQAgJk/5d8WEG8O7aDkcR21yMo/0ggoDhASrZZ7KvUllL6neei6LTZJ8x4kc9gzIRWUBlA/JcFJ3qwDXiR305E3KkoBLrGjIGqskEQvAisqdAOJ6L4khXDEAQcXXfZ8Em1hA8LTcRuZVbPt4jvqMth4DoPg9CgKF/dXrAi9iIeW9osk/8jHdgWtMfK24jBM9ix6/ofXLA93JQ3CNDcpyAiaviOg62lyMcA4ATtW0AcBMp3TENXtP2PU8PeMVyfSAF0hofBtNppK+J5UVPXFp2EL4a1YoM/dhx8SFgxI8hZnsTUYVVNCAL10eNNZYCTcylk4OKvpYnIPpBCGhrxfaaPB8FkLzkRwxeRG4FtLVoVRPrrEmfZ/CaNhC4uqUbvzrYzE1gdAQAgohf8GlqmY72QSXoaMgZ4T1xDOoCobKNL1MFa3sl7VOT27TWqpR9kdaFcnB1pxFo0r6m1KZHZpEqdkU1PgzqjrPSrQHgZop1ZCKqrEcqXYAVJwWV0AdRdMg35Mkh+EeA4DX9DVotiUQvAMTgb7DDn2epmykBaFKvJQh3k34pqfanbpqWMoK9Ax2mQc3h3ALoHleUB5heD+z5hmpJQcp8v0rdJzFghbpCSEwG4GrSliO4Y6XDsVoSYbvUorBMwnAn6ruYj01E1lLRGrLYx6tT9lqXVAsaGcWEVPNLjodgHjhXigPOp7SvCKl8fcTWIp+jXLO11PfeFkFHWY9fCrMjALAFTlXrQi6ha5nBWJXQxWBMRFZU2RpyjQ+D12ZzCVBtEUx3l7/WJQYVP/yXkvDtSeFsb/6aqVEQ8XRgxZtmS+EdmDY0WZemhH2S++F7zyK6ZxC+uURZk7lkcpKY+oFMGO4UE7p64khrrotSa8tJhBvkpnptdwJry0RkFZXPsm4K5JJsDH18ZVLjw8EeAL0JRK+PIgYvWrcttiU5ycg8y3i5xCZpIHZ1wrTPV6zFl/aZxS1ln+R++BhGrwtSuYo5fiWYDEtBMYi4KvCm7sQAs8S7uRRKal+Ql+85qE3yUrZBRFR5lQ/Iq8S1Q0zu8nfFFk3mEqmyjM2G2EyGlzdMS06YMhl2k2+oD5o6xJmtTIfqiOOZCw8FWuI+SWWNXT0iJZUZA9vSSGOZpRaS4DWzWrtubHK+4Utq+RLbdDO35T3OREQV8NAEZCUAAgi+XGRNvCmgDFmS51xW/lqWm17kQkAepjPiR71q3Z5ewNtmkmUNB3zviMOT9J+xm4xnLt8+yf3wsaUncxnKq+4X9iJyy5hNLT5EQTXRhx32Bj8wEFHOpUZNre7YSBODKGOqxWS23HEOImKWzU5EVAEPT0BWhriUlszl6laNb1XriS+/ib0poIz/zRGD0+DLW8w/U+PDoGoOaP3n9EHNzFL2KZeAV85kOK80XnvQvMbdFDCUU+w/zzOzWo0Pg2b7BQd8F/THTOxH377EkhMRldsPstlsttKFIOuTk5+Wn1BGRERmHqIaMi2dNNSp3MlcRESkYECmRcnTdZYvmYuIiPTW/kxdtET6sb7aIUlERFRerCFTEaw3OQoR0VqzZpK63nrrrUoXgdaAN954o9JFIKKH1JoJyERERA8yNlkTERFZAAMyERGRBTAgExERWQADMhERkQUwIBMREVkAAzIREZEFMCATERFZAAMyERGRBTAgExERWcCaDcjCcCfsdrv4ty8KAUmE7XbY7WEkV3H7ncPCKmyNiIgedGvy156SfXZ4eitdCiIiouKtwYCcRKIXALyI3BrU/H5vIJ1GoFLFIiIiKmDtNVnPpXATANpasb1msYWJiIisYe0FZCIiogfQGgrIUtJWgx8xABjxo15K6gpPqt7Pk9SlSQKz22HvSxb8TLLPbrJ8PgKi+9TLdyI6V2AfNH8m5Z0Mm5TRmEBmKOO+KJhiRkRkTZUPyHJwqVjAEINlfVdM+3KvB/a+RN7lDUljvR4p8OulEN1XD/+I+rUY/A36QJtE2O5ByPD5EDx5M8NTiO4z+4wYpA1lHPGjfpWyzImIqDSVDchzUXS2qMLJiB/1BWuahbgQSKeRvhWBFwDaIphOp5FOpxFoyv8pYfiIFCy9iNwSl0/L6+kNGYPd5JC4vGr96XQa6WtB0/XHujzwPxXXrhcAEMJZw5CoIOLqdaanEWnLtyyAXj/8yJVjsN0BAEj2iUHaOzCtWlca8R5xXZ4lH2MiIlopFQ3IwvVRxPQv9iZWsQYnYOKqWILgNW1GNmp8GFSCp4mnnHCo/98UMA/8bRFMd7s06z05IK41dielWtCFQDoAl+bDDvheDposKwsifsGnLcdcFGd7AfTElQCtbKE7jiAAfJli0zURkcVUvsm6olKYlWq7HWbBtMaJLfrXmjrEWmuvp4i+Y8C7a7s2YAJwOA1r1VI347cYG6QVPW5dAFc95Mjl0/xJzdsjszAL70REVDkVDciOba3GGqhJkFkx8hCpkjjgu5DGtFTLLTYwa9TUmtS8VQldhYIwERGtSZWtIdf4MKjue9U371qYo31Q6puVmoF7PaUFZQ1BSc4KXktr+n3z9U0vRt9/rP3TN40TEVGlVb7JuimQCxT6/tCVJjdJj4xiwmwY0mTCJINZz4VAerl9s/mbzoVUaXV4uTk8dnWC/cRERA+QygfkinLB3QOIw5B0Y4Mnw+ZNx5Nh4w9GFBW4izDix5Bq6JQw3GkcjrUYuY97xI96wzAycciW+fAsIiKqpIc8IKsyjxGDv8GuSaYKXpPf04p11WuTpaTAHXx5qTV8+cEACLXk1lvfBUQGSm2ydsD3jpQdrpocRfzTj4cmIiKreOgDstjkLI/3zQleyzN+uSkgjefVLI34IuOdFy1Fd1q3XunHMZxLWFmND4Mm+ySPtV5OOYmIaGX8IJvNZitdCMuai6KzwY9YWwTTq92/TUREDxXWkAtIXpLmxdZPAkJERFRmDMiT4bw/HuGRf1d5DwcJERHRynqk0gWwhhA8dvM8ae/ASe2UmkRERCuAfchArq9Y82IQcU6gQUREq2TNBOS33nqr0kV44LzxxhuVLgIREUnWTEAmIiJ6kDGpi4iIyAIYkImIiCyAAZmIiMgCGJCJiIgsgAGZiIjIAhiQiYiILIABmYiIyAIYkImIiCyAAZmIiMgCGJAfMMJwJ+x2OzqHhUoXhYiIymhN/dqTMNyJ+q7Y4gsC8A5MY7Cdv3JMRETW8JDWkIM4yGBMREQWsqZqyI72QaTb870rILqvHv4RIHiNP6tIRETW8tDUkIXhI/CPAOiJI9BU6dIQERFpPRwBeS6KI10xoC2C6e48dePJMOx2u+qvE9E5/UJJhO122O1hJE0+UyjRSk7GKnb53LZyf+HJxXbU+BmlrEREZGmVD8jqoLYvivLnDicRbvAjBi8i7/hg1nOc7LPD3hLSvRqDv6FAEJwMGz4T66o3CbJikDRLNot11ZsHzLkoOu0e6EsUarHjyFXz4ogB3/gZIAQPs7KJiKwvW0lfX87uXb8+u179d/JGWTdx46S43r3RefMFkqfE7b5wOTtv9vr6U9lciW5kTyll3Zu9/LVxO9rl57OXXzB7XbcuzT7ne129Dd3+KGU17ud8dK9peYmIyFoqWkMWro/CUG/sTZSviXUyDE8vgJ54niFOAqIfhAAEEb+gqz03BRDvAYCbSBmaroHgtUH4anL/d3XHEYRu+bkJjI5AXH9an0jmQuBWBF5Au8+TCbGWa9K87upOS2XSSo6L9WKzoVyO9kHpMzGMXmctmYjIqirfZL1S5qLobJGCbb5+YyVgis26+j5eTy8AxDBrCMhBuA2JYU7UtmlfkR84vAMd5lndNdvR2gaog7iQuilu4WXz5nXnRq/ulSQSvWKZ8g3lcu0QHxVid1Km7xMRUeVVNCA7trVCH17Q4y7DkCQB0df9iGE1hzg54Hxq+Z9J3SluYpOS1NQajzMREVlKZcch1/gweG02lxxVKAu6BPIQJ+/AdHFDnNoimNY3Wa8KAakvV2Ezc7PGrgEiIrKUyjdZNwWQTqfFv3IExcmwmNHcFsHJxWbjqnFiCwCMjGLCpJ94ueQWgFjXkHm/uNJkvgVOqT9abpIOjZt9QsDEVX1odcHdAwAhnM2TSa30MW90lroLRES0SiofkMsqiXBLCCgwxEnLhY4BL8QhTsZxx8JwJ+x9y0gxU/qIQ/AYhjfJw7G0fcxKM36vR7ft3Exjhr2Q+4hNhl0Jw51SXzinCyUisrIfZLPZbKULUS7JPjkRa3HBa2mpOTt/oAMA9MSRVprRkwjbPQiZZk3L2/cickudgS1/ppj1iwr9SIa3zYvYSMyQUV34hzX0ZSIiIqtZOzXkuSjOFhmMtRzwXUhjesCY9uQdmDYEy9K5EEibD1cKXkubrt/RPoj0taB+acTTaZzcZb4VR/sg0vIwKrW2CKbTDMZERFa3pmrIRERED6q1U0MmIiJ6gDEgExERWQADMhERkQUwIBMREVlAZWfqKqO33nqr0kV4YLzxxhuVLgIREekwy5qIiMgC2GRNRERkAQzIREREFsCATEREZAEMyERERBbAgExERGQBDMhEREQWwIBMRERkAQzIREREFsCATEREZAEMyKQ1GYbdboe9L1nkBwRE99lht3ciOreiJXs4lXw+qFyE4U7Y7XZ0DguVLgo9JNZYQC4yOBR1k5PXpf0zfDnnougs4YYpf8ntdjvCk0V9BMk+efth8LZcmHis+HCwknLXo/Gv2GuaiIzWWEAuD/GGUw//iPG9WFd9GWorXnjbgNB4EeuZi+Js7zI3t6Ic8F1II50ehK+m0mVZg5oCSKfTSHe7Kl2SooRa1k5t3tE+iHQ6jcF2h/aNEh/CiYrFgKwh1oo9UgD0DkyLN0PVX7ynHNuJYctTQaD37KI1OeH6KGJtQQTbyrFdonLxInJL+91IXwuKb/V61nZNeW4WsUqXgdYkBmQVYfiIWCtui2Da7MkYgKu7TLWVHW4EEYP/UqGn7CSGumLw7nKjdvlbJFpZ/hB1+gAAIABJREFUTQFMD3gBADdT7HclKhUDskIMfkAQ8Qs+GENxubnQMeAFehN5+4WF4bMIIYiD7c4C60kibOjLK9TXbFy+UNKKvr/QWPMx77fXJsTo++MLlE9uDlylfklDf+i+KMyPRpHHWZOfkPuM9jhIx0q/r2ZNoKb5DvJ6pe3Lyyx6Po15EeHJfNtYAbpymvb168qizrlYNMHK5NrJfz5Nzr1u/w1JXfL6W0Li/3s9efdDX+78ZdeeS6VM+6IQVOcr33eAORNrS+UDsvpLWuDLs/LlSCAEAD1urFZvnWNbK7wI4WyeL+pQV2yR8iQRtnsQMrwegidvsDAuH+s6YvqFTvblmu+VNbeU+uVPIbpP3x9vXj5huBP2Br+hOTDUshKZruKNUL9/GPGj3lC2Eo8zAHG/zT4jmYuiU7+vvZ7Sg+JkOBcgJLGu+jzJh8a8iFCLHeHx0jZZSOqOuEdbnNpH2mSf3VBOIAZ/Q+FgU9+lvRry5XAk++ym1454PvXb0HZNKcrS1C5eV/pyA1LZCzyMpoY7dWVyYPsuscXBNN9Ezi9pa8V25m+sDdlK+vpydu/69dn16r+TN5axwvns5RfWZ9ev35u9/HWBxZKnDNu6cVLc/qlkiZuU96HIcs9H96q2I5f3VNbw6eQp1X7kW+5G9pThNXnZ9dm90XljOU3KOh89lTte8rFZvz67/oXL2dwabmRPmX7e/JjL+2lYXlUO8/Lp9kd5fZFzKpfyZHHLyudbUwbV69p9LOE45z1+2s/or7Xc8dKV3eRa1ZwL3fJK+TXlVW1XV6a856mAfMdYWZd+v+V9yPe6uqzq46c/5qr3zI+d8ftrejwKlMdsvfprxPycZLPa82v2Xc13bZmfS+37xnuE9l5Ca0FFa8jC9VHjE22BJty1xwHfy0EAIST0T/AfhIp48nUhkA7oatDyOoHYnZTyavKSWHvwDkwb+sAd7QGTDGl9070LATlp58tU8S0ZbRFMq7dX48NJqZ/RWD4vIrd0+6MsH8NsuZrl5JpFT9yQJ+DqjiMI6Pax+OOcU7jrwzswjUCTam3tJxFpA0rdz+A1bXa7Un7cREpez9wERkfMy+RoH1T6fUsj1m7VTbL1XTHxfGu2IV3LZsejKSAlSarKmtszxPXHXNVHnasxCpi4Kt5FgtfSmmMKAK7uaem46r9jAJ5yGsqj/3xJ1MfZcL24ELgVgRfIe4/Tn0v5c+4es/LL+x2EezllJkupfJP1w67JjSCA0Aeq5vrJIfhHgODLJfRlq5v+DU2DAlJfAkAQB00S1UyZNZXX1KLUW7d313bDPjicW3SvJJHoBcxu8nZV81+5EoWUB0GlD1D9JzUzj8zCLMwWPs4qBbsavGjdZjgqcD5V6p6Y3YydqNVn5EtZwd6BDtMyGc/HEvXEkdYHXSVIheAxGbfskc674SEkz/ETu3mQe2CS198WQYdpYMo1+yrXT1OHGKTl81+mvnP5usp3nFGzHa1tQL4HkHyB1bVHDOSaZmt5v1exi41WXkUDsvLlUlvWBbaUm5rIubFS2aFSctfIKCakL2lyXKxRLP7kq0o0KhQckMKsyZjqktU4UZZb9xICe2UVe5yXR74Gl8f4HRBSN8uwXj31sKfpXICz4Nhc4wOHOHZeaRkoc2AuUJKl3Z/kQK6qWSstSnsYjteSytaQa3wYlJtBAWPz5pIVbvaTb1DejbnsZflLG+saWvUmc/HBRBoCJTWn5n3KVghK0lDwWp7xoA+cIOK6cd/qP7NhaMthNs489yc3Oa7F41xuDvgu5IKyaWKUNJQw3/EuuqlYHgOsb24uIN8DiTzxRzotNfOv+AOF3FJVKrmWLyeASi1KTOZacyrfZC3PRJROG5u7lkCuZWiagDVyfU6aTFC5GQsheFb7Kb/Gh4M9AHoTiF4fRcy0SVNPqvWaNNUZb0ByM2a+jO5Ky5XP0M+3ApSHr6sTRfSFl3KcrWmx/RVbZJa9FaVPPdSiyiSWW1VULUBFyZOnIJdVeZiWa48jfgyZXjt5vu8aLgTSZrkDpZFb/PI+1CvN91vgLDGQOtoPIgjpHEojQsy6g+jBVvmAXGbyhYsRP+oNw6iE3BAcww3WAd87ctKFJ+/YvmTfyjRtuXaIyV3+rlhpT766G5Ew3Gky5EKVgGQyJEYYDld4HKP6Zm4yDGYyXN4hcfLDV95rxKQMRR1ni5LyFMz212xo29K3IydpqR9qpS4ZxOBvyDNe1+z7ZFJWQRkWpH5gVQ0NMrl2kn0m3/fJsHFYmDzssRT64K30EZsNh0si3OAv3MdckJTcNTKKI1KSXNH5IPTAWHMBWZMNLI1BzCWRyOMwvYi8Y1Ibr/FhUM6EzJNgVLabl55800SxyVxy9qU0f7CSAAVEBkyaUpWbpTweUv0ZC9T0VOVT78/S+m3Nz11uggXVw1fea0RW4nG2pPzfCU9vEPEyNr0rWd6qpmt1BrlpZraZnggi0JZVXlafjexoH8x77YjfV2OGt/47IF9jRX335BwI5VjKDxoO+C7IWe76JDYpWdAks79YYnJXDDEmc61ZazAgQ2oGj8P0NtMTL/xDCDU+DKbTeYeCBK+t1ET/ck2i+GEMrm793NpeRG4NwpdnYi9Xdxpp5YFD9amBk5b4YQhXd55+WbPs3eWq8WFQTkbSEJOV1H2apR5nS2oKmJx7s+E5y5UL/rlJZHRJVCpmw/BEzly/dG5pw7lRtlro2jEZPmWck17MXyiqL1uf+6ItCQJ55rxf9r1DqYEDwR0Mx2vRD7LZbLbShSCiypGb370D02VPnCuZPPNYT/yB+YWrVSPP7mYY601rxdqsIRNRkeQ53AslPZEVKJP7MJlrzWJAJnoImCcjqubozjuxBlnCZFjpD2cy19r1SKULQESrpNcDu2lSYp4kR6o4fRZ88Fq5+/zJSlhDJnoIuLrzJCouluRIlmE2VzetLWsmqeutt96qdBGIiCrijTfeqHQRqAzWTEAmIiJ6kLHJmoiIyAIYkImIiCyAAZmIiMgCGJCJiIgsgAGZiIjIAhiQiYiILIABmYiIyAIYkImIiCyAAZmIiMgCGJAfGgKi++yw2+UfjSciIitZcwFZGO6E3W5HeLLQUkmE7XbY7WHof5COJHNRdNrtsJv+MagTEZXbmgvItBpi8DeULzAX9xBFRLS2MSBTYT1xpNNp3V8cQQByYF5uIE3diZWhoEREDzYGZFoCFwLpNNLXxLAcamHTPxHRcjEg65n1ne6LQtAvNxkW3+tLItcnbUfnsKBaR55AJb+vWq/cbKv+6xzWb1WbmJX7jG47ctmUvxUKmE0BxHsAIISz+rIWcRzl8nt6xf+HWsyXS/YZ+7E1tfIlHG8AJsfJrAlem2+glEW9LsO+5mvKl8+f6q+PjzJEJKp8QFbfFM0C32qai6KzwQ9DA+qIH/V5y5ZCdJ8HIfVLNdvR2gYAISRMmnOTl8RtBF/2wQExMNV3GZttY131JkFZcj1s+hlhuBP2lpDu1RA89iMYNV/Tsrj2ROAFELs6oQ1QJR9Hc8m+XMBWC7WognKJx1ter/E4FW6CTw13GssyGYbdsK8x+F/X7edcFJ32evhHdJ/v9VT+uicia8hW0teXs3vXr8+uV/+dvLGsVc5H92rXV/DvVFazta8vZ/e+cDk7r1njjewpaflTSdXLyVO59Rg+oyqHYX/k9eW2PR/dm90b1a1BWb+6jPPZyy/kyq8pj65M2vdy+7B+/d7s5a8LHED1sSjqfBj3p6TjmM1mb5zMsz/Se/rXlWOr2kYpx1s5Tvoymh7zQscudz60ZZzPXj6pXneB5aTXDeefiB46Fa0hC9dHjbWo3kTl+iNrfBi8kKtFiVzoGPACAG6mzOoxQcQNnwEc7QfFxCf9/kwmxNp0jxsuZdlBDLbr1tDUgUgbANxEyqT50zswjUCT9rXkeCjPey4ElESsVbCk42jO1Z027KdybEdmkdK/tujxFhD9IATT86Y0wZsf8+C1QfhqzErpRa3mdQd83ap1Tw7BP2J2XhzwvSO1MNxJgYgebpVvsl4hwWv6zGCzLOH81H26Zk3DClVg1XLBLfWvqptRxaDpRWSP2afUfYwmzZsKL1q36R8BBKS+BIAgDuqDOwDAidq2/LuxUoo+jovK9dPb7bouAgBFH++5CYyOiMt5TMZYi03SMcwaAnIQ7ib9aw74Xg5isWFg8oNSrKveOKZbbu7+MsVma6KHXEUDsmNbK7z6F/MGuFWgSs5ZXvAQuXZIWcjjcp0tiUQvgLZWbFfVqHJBq1AQXkwKs/9/e3fM2rbWxgH8f+F+ggg8eKi5oy+ELvFwh4RuMdTFQzy9lJqbIYZLJ5MOxi+EwGs8JPEULthDwVC61BlMfMHZSjMU6iwlUI/FhRuoQZ/B7yAd6Ug6cmRbjhT7/wMPTWTp6Mj1o/Oc5yhzv3cBdyN8BYD8E6Ssn4XXj3ZBlyoIOwXt71BtlT3LwPjgFCKaR7Qj5GQB7StprJpvYngYVTgeoLFZQg85NG+dI+phy3PbEMzWtiONOr44Rw1A7vmOlM40i7PyTQwdo/ihmbKON1EwZZ9TeP04FkVUnrXQPhmOIP0tePrb+XKnyaczl4FZ59hDadMblKdmbRTTHkS0XqJPWW+V4/GlJEZ6ldeeecL5H1wh5k1ruL4Z49M/PbhTyuPRVwDOCmDzqDOOeEVKWl1pbKdqw2MFzHwTJ+KcQuxHY3tFel8cw+P+/kYyhacA0L3EpyWMYhN7bSsoi7R36jfjRsQeuRMReUUfkOOmfu4Y2fgtuwlKpOVrH98ZAdYnJV/7W176MkAjQIrWdSTsPDe/+HcV63RVy5DmZaakjXR0Ds3/KW6k5uhHdbFXD6X3UiC751zu728RtNWj2PFFcYa1wWN09t1rn8WNgNQmq+Asq9j3AA2muIkIDMg2ay2rmAcURT5VNOdNWcv7rddQA1B95gwP1jx6t4S0XLRUac6csk7snVjvsR6yYRUO5ZCbJwVez/oXIqGKvu6qPJ6jH8UI0ip6MtflijlhRxs2S0Cr6V+Ud09/A3I/Ods435y3uzjMrAPIN/HSSntnUL5SnEvAuXEiWg8MyJYECm/d87ZV9PUydhbcrxi5Or+kTckC2rdNZ3FbpQ/9cJ6jJlB4q5tLd1z700/wYo49qlXR13Xoelkx2p+9HxN7bW+bAWM648oZenOtIdp7KcXG9vGn9rfVRvWcdq41hB64jsFetuTZh2JJlXruW3FTQ0Rr6ZfJZDKJuhFERETrjiNkIiKiGGBAJiIiigEGZCIiohhgQCYiIoqBX6NuQFiOj4+jbgLRwo6OjqJuAhFFhFXWREREMcCUNRERUQwwIBMREcUAAzIREVEMMCATERHFAAMyERFRDDAgExERxQADMhERUQwwIBMREcUAAzIREVEMMCDH3gANTYOmNTBY8pHGF0VomobixTgW+4lq/4/TGJ19DZpWROcu6rYQ0TxWLiCLL2vla7+DVf8KX/fz9xI3NKrX8m9yiIiCWrmAPFW3hPTaBibce/6JvTZ0XUd7L7HQYXz3c9dBUdOgncYlDNaQ1TQ0bqJuRxgSKLzVoettFJLO3wxOOXImegxWNiBXr3Touut1VTV+2S0hveKjo1ie/90P9B76mEK+iaGrP/oV41e13VX+LIwx+hZ1G4goiJUNyEpbZemLuIZsbEZqD2Tdz98lczhEMw8AXzHi6JGIIrZeAdmUOeyjCgD1cymN5yyKsedijdGTkfbzLyQS2zvSnyJFG3Ae1zP/u6TUuvr87ymWumko2qYuJPLsR/TDbs34dz1r7kf9PvkVXeGWODfppbiBcZ+r+JyI17R0+Gzn622Pc1vvtTDakkapCwA9lDb9zkM1z67OGjjOV/p8N25gf0b8Prexm7IgipfoA7L8Rf9gc7sZvGzlAPRw+VlxxM8NpA+cydXMMyPd2/vnk6KNA7w76AGoYnvL/NFdB8XNkjdF2y0hrTjPwanmOaax7Tm+Bjyr4O45f0XbrGDqaNs7/AipReOLovf8AfQO0ksMyiP86ALAU6Tkede7DopWIJPUs1M+oyN09jVk686f1nZVQdYIgH7n6w2GAzQU7ekdvFl4XtgIsFnUPL8x5tf9+/4TGu7P99a2caPXvcQnRbsG743tq88yizWaaFVNovTvh8mrjY3Jhvw6+bLQLn92Xk02NjYmZ4N7NhycuY73c/LhT7sd3veL37+afPhXva9XnZ/Oc/vzw+SnY8MvkzPF/kWbPft29M/ZJEjPzH/+9nsd5yG28+zTPhd3u5X78Tmm/B7f7V3n7rt/JbOdnmthX2/nfuyfO89Xvb197bzHUF9X+XPmvqZSnyqui7vffnbOFPt1fz7v/9yq+tLvM+k4X5/rqL42fteBiIRIR8jjz5feEWT9OvICm1xriPKW+6cJ7DxXjyoHH2sAcnjxh1RVnCyg/bYAZ52xGJkCX0diH2N8+sfoheqVq0I2WUD7toncoie0AOPcVH2SQVk3U98hSOy1vVXZWy/Dm+MVFebWyxhx5lpD53Fv3lk/d55vAoX/Gdei933k3X++iaHreif22uZ8vfSZufuEyy4AVNHXy3COFTMoi+ut+H+Q+y3l+Hdir+ypqJ6FfG3dfa9suyzfxPDQO9JN/PHC6CN3JunmGjUAuec7WKyGn2h1RZ+yjh1XYJUk9l6jCveXzQDXdQD5F9jx+XKU5wq9aUozbZpv4qXnJgBAMoWnc5xFOESFbhWvlUuhUniSD/+Y9lypIm0couqVd2mWCFJG6tg1rypStN9GnrS1X6CxpjrMIC5uQnOtl1AmbpM7eOG6CbE+d2abwknhm59b32vrbbvMN7AmC3hdgSdtrbxpJSKHSAOyuJt2qGyrv6hCNh4ZM7PuUcd0GWy7vmzGF+eoAaj+5RoNSwUvqrlCe7vREuaI7xfs/MUc6wO0x7ppWVIQlpc9maPQ2m4c1yAnkPrd/bMMytIyrXAD8xTJJ3NlZ4xALmcFOjivA6i8XmhET7Tqoh0hJwtoX0lJT580WPhEEdbsd+ziy6b0fgA73SwVc5n7NwpecmjeOte+DltRJqCF+c9/KW7MIjrPWmGxLClk0lSA3xpk5Tpu8fJMRfib/cbPf91w5tB5Q7HcgjfMv27cLO7qHbzDAHZWgMVcRNNFn7I218bO+kU3vzE6+0ZVaa51Mvsdu5jXrF9jIOYD3aN6MepVjAhG311fcSIl7VOZKubewjPL+YuUdA3XqpGkNR+6YIvMoOXJMixzhC5Sq6712KnfjBum2sfZKhmU88pSfcDTlHFm1hyrGaw8rD51VX672i5uKNTHDcLM9qCGc5+gbs0xz5RFMvZt1ErUcH3jd9NKRG7RB+QHZKRFzZRovomTuR4RKYq7ajj/76UxCv6Pz52/a53v4NS7LMb+YuyhtOl6vOFNw7vcaAGzn784V0V6129ZVxCKOVgAqP3dcczNN5TLccJjr8fOWucm5mtRz/qs1/V5BKVi+8GpSL9LwciaI64hq1reZPapPMc8vih6UuvKgsipevjharc1R6wYaY8viuZn1X+OeRpx41H7+w0uu1PmzInIsrIBubbr/WMC1lxupb/QaNwqsun21MVc1peu9DAGTUO2XkVTkbK2AoNre223BuRzc83jhXX+ib0TK23s2OdmCWj1Z0spizlJq+LZCG5WLYGjEjqLWqW5nJS1JYOyOWVip67tn9kPMJHa5LOnXKuJqmt7I6Dl0LyVq6kTKLwV19tY6+vZf6XvKTZzX8+0OeXgezMoHU/MSVv7EDcOW2VrCsVdxGbt/9ZdCR6QVdzVQy8uUyNEMbeyAVmp0jdS4wvPU4tRrV+1aQKFt+75T2OZy47P/sqK+dJcawj97evwqqznOn/jjxaIgiK5be29GVOZ7poB+efu5V2VPvRDdW+FaqtsP0pUPPRjqwxduaSrir7ijzcYdhTLwPy2dxZpOd5x5b0+8k2RJd/E0LctrqMd+s/FJ/ba1pz0vPv3Pa45Ap+2AoGIbL9MJpNJ1I14fEQ6VbWWdJ2wH8QTxlRrededmKKpXumKdf1E5LZeI+SQiKVOD7VEK66sfsg/waxlP7TixFInFnMRBcaAPKu7Dt4Enr9bAXcdFBWFTPKzp73V0bTexuj811ucRkTT/Rp1Ax4L9x8/mGvJ1KNlFJuVVL+q9JmOJIO78n7ulQxE64kj5Dms1XxhsoC2ssDJfOjJgzzIhR4dxbO9iWi6lSnqOj4+jroJRBTQ0dFR1E0gip2VCchERESPGVPWREREMcCATEREFAMMyERERDHAgExERBQDDMhEREQxwIBMREQUAwzIREREMcCATEREFAMMyERERDHAgGwZoKFp0LQGBkHfctOApmnQTgO/Y2bjiyI0TUPxYry0YxARUfRWPiAPTjUjaDpe3j8nSEREFKWVDchiZJmtq35r/DlB56gzg7KuQ9fLrr/fao6c9zvgGJWIiJZlJQPy4FSz/3ZxpQ9d110v1Z8T9HE3wtdlNZSIiMj0a9QNCN1NwxwVV9H3jHYFYzRMREQUFys2Qh6j83cNQA7NW79g7Mdd1GX+e7OEHgB0S0ibc9CNG589uOarPdvddVD0TX8HKyq79xhERPQoRR+QRaVyGPO0d59w2QWQf4GdZEjtC2hw6p2vru2GWTw2QmdfdQxWYBMRrYJoA/JdB8Xdmv3vbgnpBZYQjT9fogcg93wHiYUbZxZ53TaRA4B8E0NzDrq85dq0nkX2m/17e466h9L7cJZE9Q6yKEE+ho5hK2f+7g2rxomIHrlIA7IIoA716+DrgGchj8TDGpFbqui/LUg3ARmUr8yysW+jcI6Rb2LoOAaQ2GujXwGAHi4/c5RMRPSYRZ+yXgWVbe98dfKJMbIOid+oP/PMHIt/H4V4NCIiemiRBuTEHy+8QUsV3ILuL/UUgE9w2irPt+xpXskUni77GEREtDKiHSEnC2hfSaEx38TwcN5wDGBr2wi09fO1mVMdj4xV0rnfUhG3hIiIFhF9yloeubrmSGeXwbY5p1r6b4yfrNX9Ac8Y/uYaNdW2JnVKeoxP/xiz8E9Ti5exERFRdKIPyCHLHJrpaHPdsHKd7jxP31IF0Vkld/AiDwA1ZOVqcne1uUo96/kjFoPTNEpdAKhi2135TUREj8rKBWRjuZI9R1zbVfxxCfGwjyCsueAasgs/jCOBnefmrHk962gPWs2p89q5VhNV+T3Wc7rneQgKERHFzQoGZMCzhtgjh+Zt0BR5BmXf/cwusde21g9brWkN0d67bw54x3GjYaiir7dReOCHoBARUfh+mUwmk6gbQUREtO5WdIRMRET0uDAgExERxQADMhERUQwwIBMREcXAr1E3ICzHx8dRNyFyR0dHUTeBiIjmxCprIiKiGGDKmoiIKAYYkImIiGKAAZmIiCgGGJCJiIhigAGZiIgoBhiQiYiIYoABmYiIKAYYkImIiGKAAZmIiCgGGJBjaHxRhKZpKF6Mo24KERE9kJULyCKYNW4Uv7zroKhp0DQN2ungwdtGRETkZ+UCsr8BGpsl9ADkWkPoh5moG0RERGRZk4A8Rmc/ixqMYNzeS0TdICIiIoe1CMiD0zRKXQCVPoMxERHF0soH5PFFEdk6gHwTQ9809QANMbdsvRrwn2V2b19E5+6eYqybhnP/+x2MMUZn335/IPI8uPlSzpcTEdGjEn1AlgPVfgeh1hXfNJA+6BnB+G0B6rHxAA3NSGc71ZBVBeWbBjTP9j2UNot4913djMGpBm3XdYRuCen9d/gR8FQAM+Cb8+COlu6yIpuI6LGLNiDfdVCUA1W3hHRY1c8jse8q+r7BWKiir+vQrdcQzTwA1HDuCHQDNER7K31pex39Sg+1ujtUArhpGCN0ANUr+Rh9VLs11LoBz+eugzcHPW9bb5vIAegdvAk+yiYiotiJNCCPP196RnuoX09JFQdXOzBHkpVtTK+nzqCsl13bJFD4qwoA6H0f2T++uTZGxor0d+ZQR7/i3fvgoxHAc60hylvu4/ZRDXQ2wOB9CT3k0Lx1tTVZwEkrB6CHHwzIRESPVvQp6yWpXpmj3Ho2eDpXTp+7U8wAxqOvxr7/Uo+4U7/l3O/A6BsAVPFaWUyWwpN8kIYNcF0HjNS4e65bM9LyAL6OmLYmInqsIg3IiT9ewB3C7h/RBt47Cm+NEWjvID2l8Ekq0FIEYdnouyIlPf0d+BE0JU1ERGst2hFysoD2lZS0nVoJPY8MyuYca21XVY1sr092zu/q0K+CJpMfknuu2/niki4ioscr+pT1VtkOKvcWX81BCvq1XffyInMEm2/i5ZbzbSI9LRMp6dpH1Sz3GJ/+cY+gRUq6hmvlozw/4TLQCPqe/RAR0aMXfUB+CFtlDM3Cp9KmYilTt4R3UqAbXxSteVmZlWKvZ13Pwh6js28+fMT5Duw8N4O4e4R+10FRsYRJzS4yU470bxrhLxkjIqIHtR4BGUBir21WQcvrizPYNiuja7tykRTQbClS1lZFM4ygbBVWpVFCE/2WZ0Ycib0TcwmV8xjaZglo9a3f3WurbFVxO/YTYO6biIjib20CMgBkDu31xVnz6Vje5Uo5NG/bKKTU+0jstb3zy+aDR9RvSaDw1rskynimts9BfNvvM7dd6S8n3U9ERA/ml8lkMom6EaticKohWzcKxMpb929vPyWsir5nLTQREa2TtRohL9VdB+d1AMjhSTLYW8YX5+aDRp74jK6JiGhdMCDPxPhjEJ4HjcgFWpXXKCRdv1P88Qi5cMzvQSNERLQ+fo26AY9R7yAN7UD1myr6ynXUxhO2Sqq3VPoB09tERLTKOIc8BzFXLDOKtPzGuaq/KGUWjwVMbxMR0WpbmYB8fHwcdRNi4ejoKOomEBHRHFYmIBMRET1mLOoiIiKKAQZkIiKiGGBAJiIiigEGZCIiohhgQCYiIooBBmQiIqIYYEAmIiKKAQZkIiKiGGBGk80AAAAQQklEQVRAJiIiigEG5GluGtA0DdrpIOqWPIABGppmnK+moXETdXtWmfFXwzTFXwEjovW1cgF5fFGcOagMTkUgamAdQq/HXQdFzx+/mJ98Ddwvz5+upBCJQO9+rcbn2v5/qnitxU0zrbqVC8iGHHJ5oPYxwH/Suw7O6z6/2ypD13Xoyj+puDrGny/Nv+XcN85X1+0/CXnXQTHEL7zeQRrafgcMy+EyboLSKHVVv60hu+pBq54NNTAbwZ8ZDHpYKxqQe3j6exWon9/7H2r8+RK9fBXV/MO0LI5G33sAgOozxY3H3Q8jWM+heqVbAV7Xdei3TeQAoFvCG46UQzO+KCJ9YF4l6aZKvIatnPG7enYFgnIOzVt9+jkufMM3xuhbCE0lmtGKBmQAz7ZRRQ+l99O+gAZ4d9BD7vk2njxYw9ZYsoD2VRUA0Ps+irgxK+KugzcHPViBSpHNSey17ZuhenYl6wMSe23o+hDNPHjDR4/W6gZkZPCylQPq177zZ+OLc9RQxeu9lHqDe4q6PHNajjtzUSRlzN9Z27ru3lXzrf7zrN45Qr9tg+xXbJM1U/a1XamNIlW9a84si5TgMtN44pgBiss8fe838hPX0Hr5td9Z1OY79+r4TNjv8evbQPO47vOeYYQ3eF9CD0CudYJCcsqGyQJOzFFk7W9p/67PuLvdU+f8g/Sta//O6xb2ZymBwv+MG4/ewTtPfwf5P2G0T6T+eyhtqj5fAT8rRDOKPiDL/6lDnltM/PECOdRwrvxSMUbHqGxj9hli4z9k1j337HNnProoerc192GlGiW9g7TiP/gADcUcYe/gjetLbdb9Pqzx6CsAIPeb8yZofFGEtlnypMdru+4vTeOmxNOfipHf4FS6obAYX7LObQdoKIvaasj69tcInX3Ve4z2efu/hqzqpuGug6L7vLslpAOllge4rgNAFa/3Evdubfx/AND9AVV+YnDqbXfvIK282Qnet873OK9bD6XNkINysoDXFQCo4VpqhyOtL7fgID1joeE8nxWigCZR+vfD5NXGxmRDfp18WWiXPzuvJhsbG5OzwWQymfycfPhzY7KxcTbx7HVwNtnYeDX58O+U7QZnijaJbRXb//thctb5af7jy+TMOi9xnAD7kN8nHVecl7t/fnbOpH3Pvt/JZDL5crIh9Zmqn2a7Ls5roNiXot9eTf251H9iH39+mPyUtx2cOY83ZTtvG75Mzjz9Zfflq85PxfsV+57Yfem95l8mZ1YfytfJ2U/Wdfa8X0H0j6IdauK4iv5U9b/0u7n71re//D+Pfoy+vb9fRB/K1+1n55XzOvq119ja20+Odgf8rBDNKNIRslXdK5uSYp5dAoW/qnDfLQNjdP6uAfkX2JmW5lO5eWeMUvNNDPWyc3SdLKCsGKlUr9rOdOLdJ1x2AaCKvnsfyKBszfd5+8I9skzsle19L7DfZbBS4OK1W1O2zUi75tC89fankWbt4Yd7FPV7Co6e3irbleHi+qKK/tuCZ7t+BQC+YmTtM4Oyp7/EZ8dvvluxb6tiv4q+7rrmyKCsmN/NtYZSu4HE3okxD6o656VSfGa2ylaxlL1iYda+lfbv2D6DsllPgG+jpVfdJ/baaLv/b269NPta1V4/83xWiIKJPmW9bFvbqMI9b2YE1epfri+UAETKNfh7q9jecv5E3IjkWi/V6fLkDl64vigSe69RhUg7q+f25tnvg1LdxFhpV2m+TnqJNOPXkXm+4kt02jIX68bEXO7jemXN4ykDnjyF4knJSlRTHWZFum//e+Tw4g/3pyiB1O+B3hwun6kbK80tgua8favaf/IJcuGeRQByHYbfMrGAgn5WiAKKNCBb/9llc83pTmMWd3Uv8cn8khh8NO7w3YEyCLFEaLlUX8oZlHXdHIFMD8yz7Xd55GVP/QqMudGF6wQSKLx1LXNZeP2pVKSzwBeruFlbVOq3gGEqmcJTwHdO2MMKpk+RmjUztAyi/SET/0efpuybHbuga8EgHNJnhUgl2hGytAwGgDGCWsJDOIzAby6BMtOKwUcxUfBfB5k5dK7pna0oJbr1lZlDOyirl6RU0de960vFy51uNJa56ND1PqqAeo1tvonhlH0aqeKxVZzlWTctfzZjKYNts4BJXbjoZD8AZoabXrEO3T1FEKhvIyBNG1g33DcNI9PiabO5TCqwx/xZoccg+pS1eBqWrkN3z0mFRVRe1q/R+XyJnjJVGIwYvThS4DMSmQHV0gwAwUYyyQLaIiib81ah7HeJMv8RNxFyZXgKT/KAd54/8F5RFkFZpFWtkaOdFfE3wg+zJuCle2phxhFvImWM93z7fwkyz8y5S0+1vYu1XtnnATA+87hGNkmqXZipbx/aAA2zYr16ZU+N+E8zmdc+sPA+K0Qq0QfkB2J8cdVQOujNV8xlEnO5yvTrXQeNIKNVay5XtVTC/lKRR/Hji6JnOYmnKG6O/QYWRuGNVKRV+q/oO7sgprarWDJz03Auh7tpeDMCN9euZSjmNIXPsprxRdE7mu6W8C7AMpmprCIhn/5fxlOyrEIqYw5eWVsgLymr9NWjV8XneWwt15NvYOfo2wdgrB82lyP5nKPzJtpv+ZLMp84gjM8KkcLaBGRR3AXMV8xlk6pDuyWk5aKWzRKC3ScnUHhrjuo8xTH2l4o7TeuuWk6LJzT9J7PQfqcShTfWuS62btSqIpZT11ZQ8avMdhLz5+5t5OsqVyu7i8WcX54i7es8dvoAaLZmTUPaD6bw7f8lsKYDoOgb+Xwrff/nsleaaML5eRbvc68SCN63y6Au/hPrm3Otoecc7fXX8vllUas0fVLWdq2F9Zk4HSDczwqR1/oEZOvOfr5iLoetsnr+Kd/ESeBg5yzSklWvvI9AtL8EnccbqpbXzLDfe7nn+RcmP00pbY2IM4c+83CVvnMqQwreNmP+2TkqchV/Sdxf2nJAM7dA87aNgs8D3KZKFtBW9n8V/SX+kRKjtqAP5ZUSc6dTj59C4a37M208jtM72gzetw8l1xoqaw0AOKZ3LJU+9MMd3/1lDtXzy6F+VohcfplMJpOoG0FEEblpGBmGaaNnInoQazRCJiIiii8GZCIiohhgQCYiIooBBmQiIqIYWJmiruPj46ibQEQEADg6Ooq6CfQIrUxAJiIiesyYsiYiIooBBmQiIqIYYEAmIiKKAQZkIiKiGGBAJiIiigEGZCIiohhgQCYiIooBBmQiIqIYYEAmIiKKAQZkIiKiGFjZgDw41aBpzlfjJupWPQZjdPa9fadpDQyibloIxhdFxbmZr/0OxlE3kIjW1uoF5LsOipqGbN37q9ruIw3K5jlpp8sNiUawSqPUVf22huwDtCFS3RLSIQZm46awiM5dCDsjopW3YgF5gMZmCT0AqPSh67r0GqKZj7p9c7r7YZzTEo0vikgfmEfx9J2OYStn/K6eXYmgXL3SPeeoX1WNX3ZLSC+cERhj9C2EhhLR2litgHw3wlcAyDcxPMy4fplA4a2O8lYE7Yq7uw7eHPQA5NC81aF7+g5I7LWh3zaRA4B69nFmGu6zVYau6+hXAKCG7ArceBDR47FaAVn4PYXETG8YoDHrnKlII/vMUYu5yuLF2LGtvM2989zifbs149/1rLmdKw2qaMssadfBeyOrkGudoJCcsmGygBNzpFz7W9r/TcM4phnA3PO0xYspLRHvtV6qFK+4PuY1cb1n6v7nkDnsowoA9XNvWwL0tXFdReq/h9Km5ugf53ascyAiQ/QBWf5yXXTuLpnCU2CmEZwRPLKoeX5jzJmqvuzHF0VoIjUuv2NXFcQ/2Wl0yeA0pHnuuw6Kiv2jW0I6UH8OcF0HgCpe791/G5P444UxSu7+wEi1t1PNTn2begdpZZp7cCrdbNhbo7Q5pQ9uGp739A7SIQflDF62cgB6uPws7XfhvraFdv2JaHVMovTvh8mrjY3Jhvw6+bLYPgdn0v7OJlP3Jm37qvPT8aufnVfm715NPvwb7D1fTuzj2e9Xn9OXk43J2cD5M+s9f36YOPYsjqnqm38/TF65t598mZyZx3YfQ/l+1TF9/Zx8+NPVL9P6XPqdoy3i537n6tiPfT7u6/HlJOC1Fq03+/jeflH1+Ux9regn+V2zXH8iWguRjpDHny+9o4369WLFNFtle65TVAb7pJ8HH42RVq41RNs1Okzstc25RHmUNEbnb+M91Svd857MYRme2VflfDaQOfTOZyf2XhupUp/Rp1KygPbbgitFL0Z4wNfRQy7kqaKvu/pgq2wVhNU+iqsg+rGKvrvtW2Wz379ipKhOrl61HWl1K73ss32oQuzr0K4/Ea2M6FPWy5AsoC1XzSrTz/enajPPjPf3vouvxxF+dAHkm3gZsDgs93znnvlsef5alToPTp67daeNH0Rl23tDAinN/W1kpHXvPuGyC9g3TM6Xkcrt4YcnwFax7en3FJ5EUD0fXl+Hd/2J6HGLNCBbX9Qyny/1uZhVs2LEPPNcY/KJs32iijsEdkHPgl/CUpHRXIFBzLsHHZVZwfQpUtMKwB5MAqnfw9/reGRc6dxvKfuHi/a1JLTrT0QrI9oRcrKAtjWKhW96N5TjiKD8z6fgxTdLWv87vigao0DPel+Rfg1KrLs2lyup1g3fK4Ntc5nPeYCbFWuaYZYbJ9GP7ur3fBND91pg6RXdErUB3pnLwF78kbB+tnhfG8K7/kS0SqJPWYtRrK5D98zPhcgzErw/EFlzzGKUZO2jhHcLVMKOvptrfv/jCmmzjsDF9pXXnuVKxjGCsVLzB2+mP1XKWq8MVJ8pwrFISbv49+MlPsXuKVZjdPaNUatjGVhIfW1vH8L1J6KVEn1ADtNNw2cdq/0lK4/s7EDkTWVboxjHHLNdwKNanjI4neXpTj2U3ktb+y2pkfkEPPd6Wb8lNb6sQipjydG9S70qffXoVbH8x+5HebRpLysqbXqv1/iiGMnTwByPDs03caKqLZi5r1Vz4cbPZ77+RLTSVisgA3A8iMF6iYc0uEYlUgVw7yDteE/aenKVs2o4sXdiPYKztqsqRrqfuBGwH/ShQdssAa2mOmUp5rLFs5bFTUdyBy/y3nPO1qtozphGzRyKJ1R5+8IxZ1rpK5/kZfyuiSZEG53vc1dH2/3ovV4PUZDmvnaec3Rna2bua3tu2zqWeZMx8/UnorWwWgF5q+w/D1fpQ9fbnnSj45GQsnwTQ8X24hGc+pX3KNUrxbInv3a63m8svUqpt3fPtTva4n5Gt7H0aCdIO1wyh1PmMcV879Q5/pSiPcacq3dEbfSjav411xrec5wlEXO6ymPP3teZQ5/np896/YloLfwymUwmUTeCHjnx9Kxpo2ciIppqtUbIREREjxQDMhERUQwwIBMREcUAAzIREVEMrExR1/HxcdRNIArV0dFR1E0goge0MgGZiIjoMWPKmoiIKAYYkImIiGKAAZmIiCgGGJCJiIhigAGZiIgoBhiQiYiIYoABmYiIKAYYkImIiGKAAZmIiCgGGJCJiIhigAGZiIgoBhiQiYiIYoABmYiIKAYYkImIiGKAAZmIiCgGGJCJiIhi4P/DXmBDaXsJTAAAAABJRU5ErkJggg==;" vertex="1" parent="1">
          <mxGeometry x="1030" y="200" width="232.91" height="225.69" as="geometry" />
        </mxCell>
        <mxCell id="w1MHfI3NHytAB_1GA8F4-23" value="" style="endArrow=none;html=1;rounded=0;" edge="1" parent="1">
          <mxGeometry width="50" height="50" relative="1" as="geometry">
            <mxPoint x="502" y="440" as="sourcePoint" />
            <mxPoint x="1273.5" y="440" as="targetPoint" />
          </mxGeometry>
        </mxCell>
        <mxCell id="w1MHfI3NHytAB_1GA8F4-26" value="&lt;font style=&quot;font-size: 14px;&quot;&gt;.......&lt;/font&gt;" style="text;html=1;strokeColor=none;fillColor=none;align=center;verticalAlign=middle;whiteSpace=wrap;rounded=0;" vertex="1" parent="1">
          <mxGeometry x="820.83" y="406" width="48.25" height="30" as="geometry" />
        </mxCell>
        <mxCell id="w1MHfI3NHytAB_1GA8F4-28" value="" style="endArrow=none;html=1;rounded=0;" edge="1" parent="1">
          <mxGeometry width="50" height="50" relative="1" as="geometry">
            <mxPoint x="502" y="566" as="sourcePoint" />
            <mxPoint x="1273.5" y="566" as="targetPoint" />
          </mxGeometry>
        </mxCell>
        <mxCell id="w1MHfI3NHytAB_1GA8F4-29" value="&lt;span style=&quot;font-size: 14px;&quot;&gt;利用python自己写个函数,十几行代码就行,三种缺失机制&lt;br&gt;&lt;/span&gt;" style="rounded=1;whiteSpace=wrap;html=1;glass=0;dashed=1;" vertex="1" parent="1">
          <mxGeometry x="619.83" y="490" width="190.17" height="60" as="geometry" />
        </mxCell>
        <mxCell id="w1MHfI3NHytAB_1GA8F4-30" value="&lt;span style=&quot;font-size: 14px;&quot;&gt;这个是重点&lt;br&gt;两三种传统填补方法+&lt;br&gt;找个比较新的填补方法&lt;br&gt;&lt;/span&gt;" style="rounded=1;whiteSpace=wrap;html=1;glass=0;dashed=1;" vertex="1" parent="1">
          <mxGeometry x="640" y="610" width="190" height="60" as="geometry" />
        </mxCell>
        <mxCell id="w1MHfI3NHytAB_1GA8F4-32" value="根据预测任务寻找数据集&lt;span style=&quot;font-size: 14px;&quot;&gt;&lt;br style=&quot;font-size: 14px;&quot;&gt;&lt;/span&gt;" style="rounded=1;whiteSpace=wrap;html=1;glass=0;dashed=1;fontSize=14;" vertex="1" parent="1">
          <mxGeometry x="680" y="345.5" width="90" height="60" as="geometry" />
        </mxCell>
        <mxCell id="w1MHfI3NHytAB_1GA8F4-33" value="&lt;span style=&quot;font-size: 14px;&quot;&gt;不同缺失率,同种填补方法&lt;br style=&quot;font-size: 14px;&quot;&gt;不同填补方法,同种缺失率&lt;br style=&quot;font-size: 14px;&quot;&gt;&lt;/span&gt;" style="rounded=1;whiteSpace=wrap;html=1;glass=0;dashed=1;fontSize=14;" vertex="1" parent="1">
          <mxGeometry x="407.5" y="800" width="182.5" height="60" as="geometry" />
        </mxCell>
        <mxCell id="w1MHfI3NHytAB_1GA8F4-34" value="1" style="ellipse;shape=doubleEllipse;whiteSpace=wrap;html=1;aspect=fixed;fontColor=#FFFFFF;strokeColor=#FFFFFF;fillColor=#0000FF;" vertex="1" parent="1">
          <mxGeometry x="730" y="315" width="30" height="30" as="geometry" />
        </mxCell>
        <mxCell id="w1MHfI3NHytAB_1GA8F4-35" value="2" style="ellipse;shape=doubleEllipse;whiteSpace=wrap;html=1;aspect=fixed;fontColor=#FFFFFF;strokeColor=#FFFFFF;fillColor=#0000FF;" vertex="1" parent="1">
          <mxGeometry x="780" y="600" width="30" height="30" as="geometry" />
        </mxCell>
        <mxCell id="w1MHfI3NHytAB_1GA8F4-36" value="3" style="ellipse;shape=doubleEllipse;whiteSpace=wrap;html=1;aspect=fixed;fontColor=#FFFFFF;strokeColor=#FFFFFF;fillColor=#0000FF;" vertex="1" parent="1">
          <mxGeometry x="720" y="790" width="30" height="30" as="geometry" />
        </mxCell>
        <mxCell id="w1MHfI3NHytAB_1GA8F4-37" value="4" style="ellipse;shape=doubleEllipse;whiteSpace=wrap;html=1;aspect=fixed;fontColor=#FFFFFF;strokeColor=#FFFFFF;fillColor=#0000FF;" vertex="1" parent="1">
          <mxGeometry x="720" y="475" width="30" height="30" as="geometry" />
        </mxCell>
        <mxCell id="w1MHfI3NHytAB_1GA8F4-38" value="&lt;font style=&quot;font-size: 14px;&quot;&gt;一开始可以随机缺失掉某些数据,用来填补并评估&lt;/font&gt;" style="text;html=1;strokeColor=none;fillColor=none;align=center;verticalAlign=middle;whiteSpace=wrap;rounded=0;fontColor=#0000FF;" vertex="1" parent="1">
          <mxGeometry x="620" y="450" width="160" height="30" as="geometry" />
        </mxCell>
      </root>
    </mxGraphModel>
  </diagram>
</mxfile>
